<svg width="499.775" height="143.509" viewBox="0 0 499.775 143.509" xmlns="http://www.w3.org/2000/svg"><g id="svgGroup" stroke-linecap="round" fill-rule="evenodd" font-size="9pt" stroke="#000" stroke-width="0.25mm" fill="#000" style="stroke:#000;stroke-width:0.25mm;fill:#000"><path d="M 0.675 143.505 L 22.975 143.505 C 23.375 143.505 23.775 143.405 23.975 142.905 L 36.675 112.505 L 101.175 112.505 L 113.575 142.905 C 113.775 143.405 114.175 143.505 114.575 143.505 L 141.575 143.505 C 142.175 143.505 142.375 143.105 142.175 142.605 L 84.175 4.105 C 83.975 3.605 83.575 3.505 83.175 3.505 L 59.675 3.505 C 59.275 3.505 58.875 3.605 58.675 4.105 L 0.075 142.605 C -0.125 143.205 0.075 143.505 0.675 143.505 Z M 45.275 91.905 L 69.175 34.705 L 92.675 91.905 L 45.275 91.905 Z" id="0" vector-effect="non-scaling-stroke"/><path d="M 159.675 143.505 L 184.575 143.505 C 185.075 143.505 185.375 143.205 185.375 142.705 L 185.375 4.305 C 185.375 3.805 185.075 3.505 184.575 3.505 L 159.675 3.505 C 159.175 3.505 158.875 3.805 158.875 4.305 L 158.875 142.705 C 158.875 143.205 159.175 143.505 159.675 143.505 Z" id="1" vector-effect="non-scaling-stroke"/><path d="M 211.575 143.505 L 270.975 143.505 C 271.475 143.505 271.775 143.205 271.775 142.705 L 273.075 122.505 C 273.075 122.005 272.775 121.805 272.375 121.705 C 244.375 115.905 231.175 93.805 231.175 70.205 C 231.175 42.905 248.775 20.705 278.575 20.705 C 308.375 20.705 325.875 42.805 325.875 70.305 C 325.875 93.905 312.975 115.605 284.775 121.605 C 284.275 121.805 284.075 122.005 284.075 122.505 L 285.375 142.705 C 285.375 143.205 285.675 143.505 286.175 143.505 L 345.575 143.505 C 346.075 143.505 346.375 143.305 346.375 142.705 L 347.175 123.505 C 347.175 122.905 346.875 122.705 346.375 122.705 L 324.575 122.705 C 341.475 111.105 352.875 92.105 352.875 69.005 C 352.875 30.405 321.375 0.005 278.075 0.005 C 235.675 0.005 204.275 29.205 204.275 68.405 C 204.275 91.405 215.175 110.905 231.875 122.705 L 212.375 122.705 C 211.875 122.705 211.575 122.905 211.575 123.505 L 210.775 142.705 C 210.775 143.305 211.075 143.505 211.575 143.505 Z" id="2" vector-effect="non-scaling-stroke"/><path d="M 476.675 143.505 L 498.975 143.505 C 499.475 143.505 499.775 143.205 499.775 142.705 L 499.775 4.305 C 499.775 3.805 499.475 3.505 498.975 3.505 L 478.175 3.505 C 477.675 3.505 477.375 3.805 477.375 4.305 L 477.375 103.805 L 395.675 4.005 C 395.475 3.705 395.075 3.505 394.675 3.505 L 372.575 3.505 C 372.075 3.505 371.775 3.805 371.775 4.305 L 371.775 142.705 C 371.775 143.205 372.075 143.505 372.575 143.505 L 393.275 143.505 C 393.775 143.505 394.075 143.205 394.075 142.705 L 394.075 43.305 L 475.675 143.005 C 475.875 143.305 476.275 143.505 476.675 143.505 Z" id="3" vector-effect="non-scaling-stroke"/></g></svg>