<svg width="512.8" height="143.804" viewBox="0 0 512.8 143.804" xmlns="http://www.w3.org/2000/svg"><g id="svgGroup" stroke-linecap="round" fill-rule="evenodd" font-size="9pt" stroke="#000" stroke-width="0.25mm" fill="none" style="stroke:#000;stroke-width:0.25mm;fill:none"><path d="M 68.2 1.204 L 66 1.204 L 29.6 105.204 C 19.1 135.304 13.3 141.504 0.2 141.504 L 0 141.504 L 0 143.804 L 47.2 143.804 L 47.2 141.504 L 45.9 141.504 C 36.6 141.504 29 139.404 29 125.804 C 29 118.604 31.1 108.104 36.3 92.904 L 80.9 92.904 L 98.6 141.504 L 82.5 141.504 L 82.5 143.804 L 134.3 143.804 L 134.3 141.504 L 120 141.504 L 68.2 1.204 Z M 58.2 30.504 L 80.1 90.604 L 37.1 90.604 L 58.2 30.504 Z" id="0" vector-effect="non-scaling-stroke"/><path d="M 199.4 6.104 L 199.4 3.804 L 142.6 3.804 L 142.6 6.104 L 161.2 6.104 L 161.2 141.504 L 142.6 141.504 L 142.6 143.804 L 199.4 143.804 L 199.4 141.504 L 180.8 141.504 L 180.8 6.104 L 199.4 6.104 Z" id="1" vector-effect="non-scaling-stroke"/><path d="M 270.4 127.704 L 242.2 127.704 C 226.7 127.704 222.4 122.904 221.2 104.004 L 218.9 104.104 L 221.6 143.804 L 272.3 143.804 L 275.8 126.804 C 259.9 124.704 241.2 104.204 241.2 60.504 C 241.2 31.104 251.3 2.304 283.1 2.304 C 314.2 2.304 325.2 29.704 325.2 60.804 C 325.2 103.304 307.4 124.504 290.6 126.804 L 294.1 143.804 L 344.8 143.804 L 347.5 104.104 L 345.2 104.004 C 344 122.904 339.7 127.704 324.2 127.704 L 296 127.704 C 331.8 117.204 347.4 89.704 347.4 62.804 C 347.4 31.704 324.6 0.004 282.8 0.004 C 240.9 0.004 219 32.004 219 62.804 C 219 89.604 234.2 117.004 270.4 127.704 Z" id="2" vector-effect="non-scaling-stroke"/><path d="M 464.1 6.104 L 465.4 6.104 C 480.9 6.104 487 17.304 487 46.404 L 487 112.004 L 408.6 3.804 L 370 3.804 L 370 6.104 L 385.3 6.104 L 388.4 10.404 L 388.4 101.204 C 388.4 130.204 381.8 141.504 366.5 141.504 L 365.1 141.504 L 365.1 143.804 L 413.8 143.804 L 413.8 141.504 L 412.5 141.504 C 396.6 141.504 390.9 130.204 390.9 101.204 L 390.9 13.804 L 485.7 143.804 L 489.5 143.804 L 489.5 46.404 C 489.5 17.404 495.7 6.104 511.3 6.104 L 512.8 6.104 L 512.8 3.804 L 464.1 3.804 L 464.1 6.104 Z" id="3" vector-effect="non-scaling-stroke"/></g></svg>