<svg width="725.32" height="76.64" viewBox="0 0 725.32 76.64" xmlns="http://www.w3.org/2000/svg"><g id="svgGroup" stroke-linecap="round" fill-rule="evenodd" font-size="9pt" stroke="#000" stroke-width="0.25mm" fill="#000000" style="stroke:#000;stroke-width:0.25mm;fill:#000000"><path d="M 0 1.52 L 0 2.44 L 7.44 2.44 L 7.44 56.6 L 0 56.6 L 0 57.52 L 24.72 57.52 C 35.88 57.52 44.92 53.16 44.92 42.84 C 44.92 33.56 37.6 28.12 24.68 27.68 C 24.72 27.68 24.76 27.6 24.68 27.6 C 39.04 26.76 42.24 19.76 42.24 14.64 C 42.24 6.32 34.08 1.52 21.92 1.52 L 0 1.52 Z M 15.28 56.6 L 15.28 28.2 L 19.4 28.2 C 22.6 28.2 23.44 28.2 25.28 28.48 C 34.28 29.84 36.32 36.24 36.32 42.68 C 36.32 54.16 30.52 56.6 23.36 56.6 L 15.28 56.6 Z M 15.28 27.28 L 15.28 2.44 L 21.64 2.44 C 28.72 2.44 34.08 4.8 34.08 14.76 C 34.08 20.56 32.12 24.68 27.36 26.28 C 24.4 27.28 21.48 27.28 18.24 27.28 L 15.28 27.28 Z" id="0" vector-effect="non-scaling-stroke"/><path d="M 57.76 37.16 L 82.72 37.16 C 82.76 36.76 82.76 36.32 82.76 35.92 C 82.76 27.72 78.2 19.64 68.48 19.64 C 58.96 19.64 50.44 27.84 50.44 39.12 C 50.44 50.72 59.44 58.56 68.64 58.56 C 74.68 58.56 79.96 55.04 82.6 50.56 L 81.88 50.04 C 79.52 54.08 75.16 57.2 70.04 57.2 C 61.36 57.2 57.52 49.44 57.76 37.16 Z M 75.36 36.24 L 57.8 36.24 C 58.28 27.8 61.36 20.52 67.36 20.52 C 73.2 20.52 75.4 27.8 75.4 34.8 C 75.4 35.28 75.4 35.76 75.36 36.24 Z" id="1" vector-effect="non-scaling-stroke"/><path d="M 104.8 66.36 L 116.68 35 C 120 26.24 122.2 21.56 126.6 21.56 L 126.92 21.56 L 126.92 20.64 L 112.52 20.64 L 112.52 21.56 L 113.12 21.56 C 116.12 21.56 117.56 23.76 117.56 27.08 C 117.56 28.96 117.12 31.2 116.2 33.64 L 109.08 52.48 L 98.28 21.56 L 104.24 21.56 L 104.24 20.64 L 86.48 20.64 L 86.48 21.56 L 91.28 21.56 L 103.92 57.52 L 104.6 57.52 C 106.04 57.52 106.44 58.04 106.44 58.76 C 106.44 59.24 106.28 59.76 106.08 60.32 L 103.84 66.32 C 101.6 72.24 99.08 75.76 94.68 75.76 C 91.36 75.76 89.08 73.52 89.08 70.32 C 89.36 71.84 90.64 73.44 92.92 73.44 C 95 73.44 96.6 71.88 96.6 69.64 C 96.6 67.36 94.84 65.72 92.52 65.72 C 89.88 65.72 88.24 67.84 88.24 70.6 C 88.24 73.96 90.8 76.64 94.68 76.64 C 99.76 76.64 102.48 72.48 104.8 66.36 Z" id="2" vector-effect="non-scaling-stroke"/><path d="M 148.48 19.64 C 139.2 19.64 130.44 27.76 130.44 39.12 C 130.44 50.4 139.16 58.56 148.52 58.56 C 157.84 58.56 166.6 50.44 166.6 39.12 C 166.6 27.72 157.8 19.64 148.48 19.64 Z M 159.24 38.8 C 159.24 49.28 156.28 57.64 148.52 57.64 C 140.72 57.64 137.76 49.32 137.76 38.68 C 137.76 29.32 140.44 20.52 148.56 20.52 C 156.6 20.52 159.24 29.32 159.24 38.8 Z" id="3" vector-effect="non-scaling-stroke"/><path d="M 183.48 31.6 L 183.48 19.56 C 179.56 20.4 175.84 20.64 170.48 20.64 L 170.48 21.56 L 176.84 21.56 L 176.84 56.6 L 170.48 56.6 L 170.48 57.52 L 189.52 57.52 L 189.52 56.6 L 183.48 56.6 L 183.48 36.6 C 183.52 31.8 186.56 21.32 193.88 21.32 C 197.48 21.32 199.84 23.8 199.84 29.76 L 199.84 56.6 L 193.88 56.6 L 193.88 57.52 L 212.84 57.52 L 212.84 56.6 L 206.52 56.6 L 206.52 32.8 C 206.52 24.4 202.76 19.64 196 19.64 C 187.96 19.64 184.76 26.48 183.48 31.6 Z" id="4" vector-effect="non-scaling-stroke"/><path d="M 238.2 1.52 L 238.2 2.44 L 244.52 2.44 L 244.52 27.12 C 243.36 24.12 239.76 19.64 232.84 19.64 C 223.92 19.64 216.48 27.4 216.48 38.8 C 216.48 49.96 223.6 58.56 232.88 58.56 C 238.96 58.56 242.6 55.04 243.96 52.44 C 245.2 53.88 245.84 56.04 246.08 57.52 L 257.52 57.52 L 257.52 56.6 L 251.2 56.6 L 251.2 0.44 C 247.28 1.28 243.52 1.52 238.2 1.52 Z M 244.6 29.68 C 244.88 31.4 245.08 34.72 245.08 38.24 C 245.08 42.84 244.76 47.8 244.12 50.08 C 243.08 53.76 239.4 57.28 234.48 57.28 C 226.64 57.28 223.8 47.96 223.8 38.76 C 223.8 28.8 227.08 20.8 234.16 20.8 C 240 20.8 243.92 25.76 244.6 29.68 Z" id="5" vector-effect="non-scaling-stroke"/><path d="M 329.36 20.16 L 328.8 0 L 328 0 C 327.64 2.16 325.52 4.56 322.52 4.84 C 319.84 2.32 315.64 0 309.96 0 C 295.76 0 284.68 14.8 284.68 29.28 C 284.68 43.4 295.12 59.04 310.04 59.04 C 314.92 59.04 319.2 57.24 322.96 53.08 C 325.16 53.56 327.4 55.92 327.96 59.04 L 328.76 59.04 L 329.56 38.2 L 328.64 38.2 C 327.4 48.08 320.8 58.08 310.48 58.08 C 297.52 58.08 293.32 43.44 293.32 29.64 C 293.32 14.44 298.28 0.92 310.32 0.92 C 317.76 0.92 327.6 6.12 328.44 20.2 L 329.36 20.16 Z" id="7" vector-effect="non-scaling-stroke"/><path d="M 355.72 19.64 C 346.44 19.64 337.68 27.76 337.68 39.12 C 337.68 50.4 346.4 58.56 355.76 58.56 C 365.08 58.56 373.84 50.44 373.84 39.12 C 373.84 27.72 365.04 19.64 355.72 19.64 Z M 366.48 38.8 C 366.48 49.28 363.52 57.64 355.76 57.64 C 347.96 57.64 345 49.32 345 38.68 C 345 29.32 347.68 20.52 355.8 20.52 C 363.84 20.52 366.48 29.32 366.48 38.8 Z" id="8" vector-effect="non-scaling-stroke"/><path d="M 390.72 31.44 L 390.72 19.56 C 386.8 20.4 383.04 20.64 377.72 20.64 L 377.72 21.56 L 384.08 21.56 L 384.08 56.6 L 377.72 56.6 L 377.72 57.52 L 396.08 57.52 L 396.08 56.6 L 390.72 56.6 L 390.72 36.52 C 390.72 31.68 393.68 21.32 400.48 21.32 C 403.56 21.32 405.64 23.52 405.64 29.8 L 405.64 56.6 L 400.12 56.6 L 400.12 57.52 L 417.64 57.52 L 417.64 56.6 L 412.36 56.6 L 412.36 36.52 C 412.36 31.04 415.28 21.32 422.16 21.32 C 425.48 21.32 427.24 23.6 427.24 29.8 L 427.24 56.6 L 421.68 56.6 L 421.68 57.52 L 440.24 57.52 L 440.24 56.6 L 433.88 56.6 L 433.88 32.8 C 433.88 24.4 430.56 19.64 424.2 19.64 C 416.84 19.64 413.56 25.88 412.28 31.4 C 411.92 23.8 408.56 19.64 402.64 19.64 C 395.28 19.64 392.08 26.08 390.72 31.44 Z" id="9" vector-effect="non-scaling-stroke"/><path d="M 448.76 74.12 L 442.4 74.12 L 442.4 75.04 L 461.76 75.04 L 461.76 74.12 L 455.4 74.12 L 455.4 51.08 C 456.68 55.16 460.84 58.56 466.8 58.56 C 476.12 58.56 483.48 50.12 483.48 38.88 C 483.48 27.56 476.08 19.64 466.96 19.64 C 460.2 19.64 456.68 23.84 455.4 27.08 L 455.4 19.56 C 451.48 20.4 447.72 20.64 442.4 20.64 L 442.4 21.56 L 448.76 21.56 L 448.76 74.12 Z M 455.76 49.96 C 455.16 47.56 454.88 42.52 454.88 37.96 C 454.88 34.48 455.04 31.24 455.32 29.68 C 456.08 25.56 459.92 20.8 465.6 20.8 C 472.84 20.8 476.12 29.12 476.12 38.76 C 476.12 48.12 473.08 57.24 465.28 57.24 C 460.2 57.24 456.68 53.64 455.76 49.96 Z" id="10" vector-effect="non-scaling-stroke"/><path d="M 510.2 20.64 L 510.2 21.56 L 516.56 21.56 L 516.56 45.2 C 516.04 49.32 512.4 56.84 506.6 56.84 C 502.52 56.84 500.08 54.08 500.08 48.24 L 500.08 19.56 C 496.2 20.4 492.44 20.64 487.08 20.64 L 487.08 21.56 L 493.44 21.56 L 493.44 44.48 C 493.44 52.4 496.88 58.56 504.48 58.56 C 512 58.56 515.48 51.96 516.56 48.12 L 516.56 58.2 C 520.48 57.76 524.24 57.52 529.56 57.52 L 529.56 56.6 L 523.24 56.6 L 523.24 19.56 C 519.32 20.4 515.56 20.64 510.2 20.64 Z" id="11" vector-effect="non-scaling-stroke"/><path d="M 543.92 51.08 L 543.92 21.56 L 553.6 21.56 L 553.6 20.64 L 543.92 20.64 L 543.92 8.6 C 542.6 10.72 539.6 13.2 537.24 13.88 L 537.24 20.64 L 531.36 20.64 L 531.36 21.56 L 537.24 21.56 L 537.24 46.72 C 537.24 53.84 539.4 58.56 545.88 58.56 C 549.92 58.56 552.44 56.4 553.96 54.04 L 553.24 53.56 C 552.32 55.04 550.36 57.04 547.92 57.04 C 545.6 57.04 543.92 55.48 543.92 51.08 Z" id="12" vector-effect="non-scaling-stroke"/><path d="M 586.76 54.6 L 586.76 34.68 C 586.76 25 581.28 19.64 572.24 19.64 C 565.08 19.64 560.36 23.16 560.36 27.84 C 560.36 30.88 562.36 32.52 564.6 32.52 C 566.88 32.52 568.36 30.76 568.36 28.68 C 568.36 26.68 566.88 24.96 564.72 24.96 C 562.72 24.96 561.56 26.32 561.16 27.88 C 561.16 24.2 564.72 20.68 571.08 20.68 C 577.48 20.68 580.28 24.36 580.28 29.28 C 580.28 36.64 573.8 38.68 567.44 40.32 C 560.92 42.04 557.88 43.92 557.88 48.92 C 557.88 55.84 564.16 58.56 569.12 58.56 C 574.6 58.56 578.96 55.08 580.12 52.04 C 580.32 55.76 582.2 58.56 586.24 58.56 C 589.44 58.56 591.76 56.68 593 54.44 L 592.4 53.8 C 591.4 55.68 590.04 56.72 588.64 56.72 C 587.36 56.72 586.76 55.84 586.76 54.6 Z M 580.12 33.68 L 580.12 50.2 C 579.64 52.56 576.28 57.04 571.4 57.04 C 567.96 57.04 564.68 54.8 564.68 48.44 C 564.68 44.76 565.72 42.36 566.96 41.36 C 574.04 39.68 578.44 37.72 580.12 33.68 Z" id="13" vector-effect="non-scaling-stroke"/><path d="M 607.24 51.08 L 607.24 21.56 L 616.92 21.56 L 616.92 20.64 L 607.24 20.64 L 607.24 8.6 C 605.92 10.72 602.92 13.2 600.56 13.88 L 600.56 20.64 L 594.68 20.64 L 594.68 21.56 L 600.56 21.56 L 600.56 46.72 C 600.56 53.84 602.72 58.56 609.2 58.56 C 613.24 58.56 615.76 56.4 617.28 54.04 L 616.56 53.56 C 615.64 55.04 613.68 57.04 611.24 57.04 C 608.92 57.04 607.24 55.48 607.24 51.08 Z" id="14" vector-effect="non-scaling-stroke"/><path d="M 620.04 20.64 L 620.04 21.56 L 626.4 21.56 L 626.4 56.6 L 620.04 56.6 L 620.04 57.52 L 639.4 57.52 L 639.4 56.6 L 633.04 56.6 L 633.04 19.56 C 629.12 20.4 625.36 20.64 620.04 20.64 Z M 633.56 8 C 633.56 5.76 631.8 4.12 629.68 4.12 C 627.52 4.12 625.8 5.76 625.8 8 C 625.8 10.24 627.52 11.88 629.68 11.88 C 631.8 11.88 633.56 10.24 633.56 8 Z" id="15" vector-effect="non-scaling-stroke"/><path d="M 660.96 19.64 C 651.68 19.64 642.92 27.76 642.92 39.12 C 642.92 50.4 651.64 58.56 661 58.56 C 670.32 58.56 679.08 50.44 679.08 39.12 C 679.08 27.72 670.28 19.64 660.96 19.64 Z M 671.72 38.8 C 671.72 49.28 668.76 57.64 661 57.64 C 653.2 57.64 650.24 49.32 650.24 38.68 C 650.24 29.32 652.92 20.52 661.04 20.52 C 669.08 20.52 671.72 29.32 671.72 38.8 Z" id="16" vector-effect="non-scaling-stroke"/><path d="M 695.96 31.6 L 695.96 19.56 C 692.04 20.4 688.32 20.64 682.96 20.64 L 682.96 21.56 L 689.32 21.56 L 689.32 56.6 L 682.96 56.6 L 682.96 57.52 L 702 57.52 L 702 56.6 L 695.96 56.6 L 695.96 36.6 C 696 31.8 699.04 21.32 706.36 21.32 C 709.96 21.32 712.32 23.8 712.32 29.76 L 712.32 56.6 L 706.36 56.6 L 706.36 57.52 L 725.32 57.52 L 725.32 56.6 L 719 56.6 L 719 32.8 C 719 24.4 715.24 19.64 708.48 19.64 C 700.44 19.64 697.24 26.48 695.96 31.6 Z" id="17" vector-effect="non-scaling-stroke"/></g></svg>