<svg width="694.4" height="147.609" viewBox="0 0 694.4 147.609" xmlns="http://www.w3.org/2000/svg"><g id="svgGroup" stroke-linecap="round" fill-rule="evenodd" font-size="9pt" stroke="#000" stroke-width="0.25mm" fill="#000000" style="stroke:#000;stroke-width:0.25mm;fill:#000000"><path d="M 111.7 50.404 L 110.3 0.004 L 108.3 0.004 C 107.4 5.404 102.1 11.404 94.6 12.104 C 87.9 5.804 77.4 0.004 63.2 0.004 C 27.7 0.004 0 37.004 0 73.204 C 0 108.504 26.1 147.604 63.4 147.604 C 75.6 147.604 86.3 143.104 95.7 132.704 C 101.2 133.904 106.8 139.804 108.2 147.604 L 110.2 147.604 L 112.2 95.504 L 109.9 95.504 C 106.8 120.204 90.3 145.204 64.5 145.204 C 32.1 145.204 21.6 108.604 21.6 74.104 C 21.6 36.104 34 2.304 64.1 2.304 C 82.7 2.304 107.3 15.304 109.4 50.504 L 111.7 50.404 Z" id="0" vector-effect="non-scaling-stroke"/><path d="M 190.2 127.704 L 162 127.704 C 146.5 127.704 142.2 122.904 141 104.004 L 138.7 104.104 L 141.4 143.804 L 192.1 143.804 L 195.6 126.804 C 179.7 124.704 161 104.204 161 60.504 C 161 31.104 171.1 2.304 202.9 2.304 C 234 2.304 245 29.704 245 60.804 C 245 103.304 227.2 124.504 210.4 126.804 L 213.9 143.804 L 264.6 143.804 L 267.3 104.104 L 265 104.004 C 263.8 122.904 259.5 127.704 244 127.704 L 215.8 127.704 C 251.6 117.204 267.2 89.704 267.2 62.804 C 267.2 31.704 244.4 0.004 202.6 0.004 C 160.7 0.004 138.8 32.004 138.8 62.804 C 138.8 89.604 154 117.004 190.2 127.704 Z" id="1" vector-effect="non-scaling-stroke"/><path d="M 286.8 3.804 L 286.8 6.104 L 305.4 6.104 L 305.4 141.504 L 286.8 141.504 L 286.8 143.804 L 350.6 143.804 C 400.5 143.804 421.4 108.204 421.4 74.804 C 421.4 37.004 395.4 3.804 345.1 3.804 L 286.8 3.804 Z M 351.1 141.504 L 325 141.504 L 325 6.104 L 345.9 6.104 C 390.3 6.104 399.9 40.904 399.9 75.904 C 399.9 106.904 392.8 141.504 351.1 141.504 Z" id="2" vector-effect="non-scaling-stroke"/><path d="M 503.3 141.504 L 477 141.504 L 477 74.504 L 485.3 74.504 C 490.3 74.504 495.1 74.704 498.4 75.504 C 506.9 77.504 511.6 85.604 512.2 100.704 L 514.4 100.704 L 514.4 46.104 L 512.2 46.104 C 511.7 58.504 507 68.904 498 71.204 C 494.5 72.104 489.7 72.304 485.3 72.304 L 477 72.304 L 477 6.104 L 503.1 6.104 C 533.4 6.104 541.3 21.604 542.4 41.204 L 542.9 50.504 L 545.1 50.504 L 543.5 3.804 L 438.8 3.804 L 438.8 6.104 L 457.4 6.104 L 457.4 141.504 L 438.8 141.504 L 438.8 143.804 L 544.5 143.804 L 546.8 94.704 L 544.4 94.704 L 543.9 105.004 C 542.7 126.604 532.6 141.504 503.3 141.504 Z" id="3" vector-effect="non-scaling-stroke"/><path d="M 634.9 65.304 L 647.8 45.204 C 667.9 13.804 679 6.104 690.7 6.104 L 691.1 6.104 L 691.1 3.804 L 643.3 3.804 L 643.3 6.104 L 644.3 6.104 C 653.7 6.104 657 9.704 657 16.504 C 657 22.404 654.2 31.004 645.3 44.904 L 633.6 63.104 L 600 6.104 L 616.7 6.104 L 616.7 3.804 L 562.7 3.804 L 562.7 6.104 L 577.3 6.104 L 620 78.004 L 605.3 100.404 C 584 132.804 571.9 141.504 561.5 141.504 L 561.1 141.504 L 561.1 143.804 L 609.5 143.804 L 609.5 141.504 L 608.4 141.504 C 598.4 141.504 594.7 137.104 594.7 130.804 C 594.7 124.704 598.1 115.704 607 102.104 L 621.3 80.104 L 657.7 141.504 L 641 141.504 L 641 143.804 L 694.4 143.804 L 694.4 141.504 L 679.9 141.504 L 634.9 65.304 Z" id="4" vector-effect="non-scaling-stroke"/></g></svg>