<svg width="1203.996" height="147.469" viewBox="0 0 1203.996 147.469" xmlns="http://www.w3.org/2000/svg"><g id="svgGroup" stroke-linecap="round" fill-rule="evenodd" font-size="9pt" stroke="#000" stroke-width="0.25mm" fill="none" style="stroke:#000;stroke-width:0.25mm;fill:none"><path d="M 124.914 36.207 L 135.614 21.707 C 135.914 21.307 135.914 20.907 135.514 20.607 C 123.914 10.207 105.814 0.007 79.014 0.007 C 32.414 0.007 0.014 31.107 0.014 73.207 C 0.014 115.507 32.614 147.407 77.314 147.407 C 101.314 147.407 120.914 138.207 137.014 125.307 C 137.414 125.007 137.514 124.607 137.214 124.207 L 126.514 109.107 C 126.214 108.607 125.814 108.607 125.414 108.907 C 112.714 119.307 97.814 126.607 80.014 126.607 C 49.214 126.607 27.014 105.007 27.014 73.707 C 27.014 43.507 47.614 20.807 81.314 20.807 C 95.914 20.807 109.114 25.107 123.814 36.407 C 124.214 36.707 124.614 36.707 124.914 36.207 Z" id="0" vector-effect="non-scaling-stroke"/><path d="M 156.314 143.507 L 215.714 143.507 C 216.214 143.507 216.514 143.207 216.514 142.707 L 217.814 122.507 C 217.814 122.007 217.514 121.807 217.114 121.707 C 189.114 115.907 175.914 93.807 175.914 70.207 C 175.914 42.907 193.514 20.707 223.314 20.707 C 253.114 20.707 270.614 42.807 270.614 70.307 C 270.614 93.907 257.714 115.607 229.514 121.607 C 229.014 121.807 228.814 122.007 228.814 122.507 L 230.114 142.707 C 230.114 143.207 230.414 143.507 230.914 143.507 L 290.314 143.507 C 290.814 143.507 291.114 143.307 291.114 142.707 L 291.914 123.507 C 291.914 122.907 291.614 122.707 291.114 122.707 L 269.314 122.707 C 286.214 111.107 297.614 92.107 297.614 69.007 C 297.614 30.407 266.114 0.007 222.814 0.007 C 180.414 0.007 149.014 29.207 149.014 68.407 C 149.014 91.407 159.914 110.907 176.614 122.707 L 157.114 122.707 C 156.614 122.707 156.314 122.907 156.314 123.507 L 155.514 142.707 C 155.514 143.307 155.814 143.507 156.314 143.507 Z" id="1" vector-effect="non-scaling-stroke"/><path d="M 381.114 143.507 L 400.114 143.507 C 400.514 143.507 400.914 143.307 401.114 142.907 L 442.914 50.907 L 442.914 142.707 C 442.914 143.207 443.214 143.507 443.714 143.507 L 468.614 143.507 C 469.114 143.507 469.414 143.207 469.414 142.707 L 469.414 4.307 C 469.414 3.807 469.114 3.507 468.614 3.507 L 440.514 3.507 C 440.114 3.507 439.714 3.607 439.514 4.107 L 393.014 108.307 L 345.614 4.107 C 345.414 3.707 345.014 3.507 344.614 3.507 L 317.314 3.507 C 316.814 3.507 316.514 3.807 316.514 4.307 L 316.514 142.707 C 316.514 143.207 316.814 143.507 317.314 143.507 L 338.014 143.507 C 338.514 143.507 338.814 143.207 338.814 142.707 L 338.814 52.407 L 380.114 142.907 C 380.314 143.307 380.714 143.507 381.114 143.507 Z" id="2" vector-effect="non-scaling-stroke"/><path d="M 499.914 143.507 L 524.814 143.507 C 525.314 143.507 525.614 143.207 525.614 142.707 L 525.614 90.707 L 566.914 90.707 C 606.514 90.707 624.814 71.707 624.814 45.307 C 624.814 22.607 611.014 3.507 573.814 3.507 L 499.914 3.507 C 499.414 3.507 499.114 3.807 499.114 4.307 L 499.114 142.707 C 499.114 143.207 499.414 143.507 499.914 143.507 Z M 525.614 70.007 L 525.614 24.207 L 568.314 24.207 C 588.114 24.207 598.014 30.307 598.014 45.807 C 598.014 61.507 587.814 70.007 566.714 70.007 L 525.614 70.007 Z" id="3" vector-effect="non-scaling-stroke"/><path d="M 767.814 3.507 L 747.014 3.507 C 746.514 3.507 746.214 3.807 746.214 4.307 L 746.214 82.607 C 746.214 114.607 731.314 125.907 709.114 125.907 C 686.914 125.907 671.014 114.507 671.014 83.307 L 671.014 4.307 C 671.014 3.807 670.714 3.507 670.214 3.507 L 645.314 3.507 C 644.814 3.507 644.514 3.807 644.514 4.307 L 644.514 83.407 C 644.514 133.307 674.514 147.307 705.814 147.307 C 743.314 147.307 768.614 127.407 768.614 83.507 L 768.614 4.307 C 768.614 3.807 768.314 3.507 767.814 3.507 Z" id="4" vector-effect="non-scaling-stroke"/><path d="M 834.214 143.507 L 859.214 143.507 C 859.714 143.507 860.014 143.207 860.014 142.707 L 860.014 24.207 L 906.114 24.207 C 906.614 24.207 906.914 23.907 906.914 23.407 L 906.914 4.307 C 906.914 3.807 906.614 3.507 906.114 3.507 L 787.114 3.507 C 786.614 3.507 786.314 3.807 786.314 4.307 L 786.314 23.407 C 786.314 23.907 786.614 24.207 787.114 24.207 L 833.414 24.207 L 833.414 142.707 C 833.414 143.207 833.714 143.507 834.214 143.507 Z" id="5" vector-effect="non-scaling-stroke"/><path d="M 925.614 143.507 L 1045.014 143.507 C 1045.514 143.507 1045.814 143.207 1045.814 142.707 L 1045.814 123.507 C 1045.814 123.007 1045.514 122.707 1045.014 122.707 L 951.314 122.707 L 951.314 82.807 L 1033.114 82.807 C 1033.614 82.807 1033.914 82.507 1033.914 82.007 L 1033.914 63.007 C 1033.914 62.507 1033.614 62.207 1033.114 62.207 L 951.314 62.207 L 951.314 24.207 L 1044.014 24.207 C 1044.514 24.207 1044.814 23.907 1044.814 23.407 L 1044.814 4.307 C 1044.814 3.807 1044.514 3.507 1044.014 3.507 L 925.614 3.507 C 925.114 3.507 924.814 3.807 924.814 4.307 L 924.814 142.707 C 924.814 143.207 925.114 143.507 925.614 143.507 Z" id="6" vector-effect="non-scaling-stroke"/><path d="M 1068.214 143.507 L 1093.114 143.507 C 1093.614 143.507 1093.914 143.207 1093.914 142.707 L 1093.914 86.807 L 1130.814 86.807 L 1172.514 143.007 C 1172.714 143.307 1173.114 143.507 1173.514 143.507 L 1203.314 143.507 C 1203.914 143.507 1204.214 143.107 1203.814 142.507 L 1160.314 83.807 C 1181.714 77.807 1195.814 63.307 1195.814 42.607 C 1195.814 21.807 1181.314 3.507 1144.814 3.507 L 1068.214 3.507 C 1067.714 3.507 1067.414 3.807 1067.414 4.307 L 1067.414 142.707 C 1067.414 143.207 1067.714 143.507 1068.214 143.507 Z M 1093.914 66.207 L 1093.914 24.207 L 1144.314 24.207 C 1158.314 24.207 1169.014 30.507 1169.014 44.507 C 1169.014 58.607 1158.814 66.207 1138.614 66.207 L 1093.914 66.207 Z" id="7" vector-effect="non-scaling-stroke"/></g></svg>