<svg width="180.599" height="22.12" viewBox="0 0 180.599 22.12" xmlns="http://www.w3.org/2000/svg"><g id="svgGroup" stroke-linecap="round" fill-rule="evenodd" font-size="9pt" stroke="#000" stroke-width="0" fill="#000" style="stroke:#000;stroke-width:0;fill:#000"><path d="M 18.737 5.431 L 20.342 3.256 C 20.387 3.196 20.387 3.136 20.327 3.091 C 18.587 1.531 15.872 0.001 11.852 0.001 C 4.862 0.001 0.002 4.666 0.002 10.981 C 0.002 17.326 4.892 22.111 11.597 22.111 C 15.197 22.111 18.137 20.731 20.552 18.796 C 20.612 18.751 20.627 18.691 20.582 18.631 L 18.977 16.366 C 18.932 16.291 18.872 16.291 18.812 16.336 C 16.907 17.896 14.672 18.991 12.002 18.991 C 7.382 18.991 4.052 15.751 4.052 11.056 C 4.052 6.526 7.142 3.121 12.197 3.121 C 14.387 3.121 16.367 3.766 18.572 5.461 C 18.632 5.506 18.692 5.506 18.737 5.431 Z" id="0" vector-effect="non-scaling-stroke"/><path d="M 23.447 21.526 L 32.357 21.526 C 32.432 21.526 32.477 21.481 32.477 21.406 L 32.672 18.376 C 32.672 18.301 32.627 18.271 32.567 18.256 C 28.367 17.386 26.387 14.071 26.387 10.531 C 26.387 6.436 29.027 3.106 33.497 3.106 C 37.967 3.106 40.592 6.421 40.592 10.546 C 40.592 14.086 38.657 17.341 34.427 18.241 C 34.352 18.271 34.322 18.301 34.322 18.376 L 34.517 21.406 C 34.517 21.481 34.562 21.526 34.637 21.526 L 43.547 21.526 C 43.622 21.526 43.667 21.496 43.667 21.406 L 43.787 18.526 C 43.787 18.436 43.742 18.406 43.667 18.406 L 40.397 18.406 C 42.932 16.666 44.642 13.816 44.642 10.351 C 44.642 4.561 39.917 0.001 33.422 0.001 C 27.062 0.001 22.352 4.381 22.352 10.261 C 22.352 13.711 23.987 16.636 26.492 18.406 L 23.567 18.406 C 23.492 18.406 23.447 18.436 23.447 18.526 L 23.327 21.406 C 23.327 21.496 23.372 21.526 23.447 21.526 Z" id="1" vector-effect="non-scaling-stroke"/><path d="M 57.167 21.526 L 60.017 21.526 C 60.077 21.526 60.137 21.496 60.167 21.436 L 66.437 7.636 L 66.437 21.406 C 66.437 21.481 66.482 21.526 66.557 21.526 L 70.292 21.526 C 70.367 21.526 70.412 21.481 70.412 21.406 L 70.412 0.646 C 70.412 0.571 70.367 0.526 70.292 0.526 L 66.077 0.526 C 66.017 0.526 65.957 0.541 65.927 0.616 L 58.952 16.246 L 51.842 0.616 C 51.812 0.556 51.752 0.526 51.692 0.526 L 47.597 0.526 C 47.522 0.526 47.477 0.571 47.477 0.646 L 47.477 21.406 C 47.477 21.481 47.522 21.526 47.597 21.526 L 50.702 21.526 C 50.777 21.526 50.822 21.481 50.822 21.406 L 50.822 7.861 L 57.017 21.436 C 57.047 21.496 57.107 21.526 57.167 21.526 Z" id="2" vector-effect="non-scaling-stroke"/><path d="M 74.987 21.526 L 78.722 21.526 C 78.797 21.526 78.842 21.481 78.842 21.406 L 78.842 13.606 L 85.037 13.606 C 90.977 13.606 93.722 10.756 93.722 6.796 C 93.722 3.391 91.652 0.526 86.072 0.526 L 74.987 0.526 C 74.912 0.526 74.867 0.571 74.867 0.646 L 74.867 21.406 C 74.867 21.481 74.912 21.526 74.987 21.526 Z M 78.842 10.501 L 78.842 3.631 L 85.247 3.631 C 88.217 3.631 89.702 4.546 89.702 6.871 C 89.702 9.226 88.172 10.501 85.007 10.501 L 78.842 10.501 Z" id="3" vector-effect="non-scaling-stroke"/><path d="M 115.172 0.526 L 112.052 0.526 C 111.977 0.526 111.932 0.571 111.932 0.646 L 111.932 12.391 C 111.932 17.191 109.697 18.886 106.367 18.886 C 103.037 18.886 100.652 17.176 100.652 12.496 L 100.652 0.646 C 100.652 0.571 100.607 0.526 100.532 0.526 L 96.797 0.526 C 96.722 0.526 96.677 0.571 96.677 0.646 L 96.677 12.511 C 96.677 19.996 101.177 22.096 105.872 22.096 C 111.497 22.096 115.292 19.111 115.292 12.526 L 115.292 0.646 C 115.292 0.571 115.247 0.526 115.172 0.526 Z" id="4" vector-effect="non-scaling-stroke"/><path d="M 125.132 21.526 L 128.882 21.526 C 128.957 21.526 129.002 21.481 129.002 21.406 L 129.002 3.631 L 135.917 3.631 C 135.992 3.631 136.037 3.586 136.037 3.511 L 136.037 0.646 C 136.037 0.571 135.992 0.526 135.917 0.526 L 118.067 0.526 C 117.992 0.526 117.947 0.571 117.947 0.646 L 117.947 3.511 C 117.947 3.586 117.992 3.631 118.067 3.631 L 125.012 3.631 L 125.012 21.406 C 125.012 21.481 125.057 21.526 125.132 21.526 Z" id="5" vector-effect="non-scaling-stroke"/><path d="M 138.842 21.526 L 156.752 21.526 C 156.827 21.526 156.872 21.481 156.872 21.406 L 156.872 18.526 C 156.872 18.451 156.827 18.406 156.752 18.406 L 142.697 18.406 L 142.697 12.421 L 154.967 12.421 C 155.042 12.421 155.087 12.376 155.087 12.301 L 155.087 9.451 C 155.087 9.376 155.042 9.331 154.967 9.331 L 142.697 9.331 L 142.697 3.631 L 156.602 3.631 C 156.677 3.631 156.722 3.586 156.722 3.511 L 156.722 0.646 C 156.722 0.571 156.677 0.526 156.602 0.526 L 138.842 0.526 C 138.767 0.526 138.722 0.571 138.722 0.646 L 138.722 21.406 C 138.722 21.481 138.767 21.526 138.842 21.526 Z" id="6" vector-effect="non-scaling-stroke"/><path d="M 160.232 21.526 L 163.967 21.526 C 164.042 21.526 164.087 21.481 164.087 21.406 L 164.087 13.021 L 169.622 13.021 L 175.877 21.451 C 175.907 21.496 175.967 21.526 176.027 21.526 L 180.497 21.526 C 180.587 21.526 180.632 21.466 180.572 21.376 L 174.047 12.571 C 177.257 11.671 179.372 9.496 179.372 6.391 C 179.372 3.271 177.197 0.526 171.722 0.526 L 160.232 0.526 C 160.157 0.526 160.112 0.571 160.112 0.646 L 160.112 21.406 C 160.112 21.481 160.157 21.526 160.232 21.526 Z M 164.087 9.931 L 164.087 3.631 L 171.647 3.631 C 173.747 3.631 175.352 4.576 175.352 6.676 C 175.352 8.791 173.822 9.931 170.792 9.931 L 164.087 9.931 Z" id="7" vector-effect="non-scaling-stroke"/></g></svg>