<svg width="1125.4" height="147.62" viewBox="0 0 1125.4 147.62" xmlns="http://www.w3.org/2000/svg"><g id="svgGroup" stroke-linecap="round" fill-rule="evenodd" font-size="9pt" stroke="#000" stroke-width="0.25mm" fill="none" style="stroke:#000;stroke-width:0.25mm;fill:none"><path d="M 111.7 50.404 L 110.3 0.004 L 108.3 0.004 C 107.4 5.404 102.1 11.404 94.6 12.104 C 87.9 5.804 77.4 0.004 63.2 0.004 C 27.7 0.004 0 37.004 0 73.204 C 0 108.504 26.1 147.604 63.4 147.604 C 75.6 147.604 86.3 143.104 95.7 132.704 C 101.2 133.904 106.8 139.804 108.2 147.604 L 110.2 147.604 L 112.2 95.504 L 109.9 95.504 C 106.8 120.204 90.3 145.204 64.5 145.204 C 32.1 145.204 21.6 108.604 21.6 74.104 C 21.6 36.104 34 2.304 64.1 2.304 C 82.7 2.304 107.3 15.304 109.4 50.504 L 111.7 50.404 Z" id="0" vector-effect="non-scaling-stroke"/><path d="M 190.2 127.704 L 162 127.704 C 146.5 127.704 142.2 122.904 141 104.004 L 138.7 104.104 L 141.4 143.804 L 192.1 143.804 L 195.6 126.804 C 179.7 124.704 161 104.204 161 60.504 C 161 31.104 171.1 2.304 202.9 2.304 C 234 2.304 245 29.704 245 60.804 C 245 103.304 227.2 124.504 210.4 126.804 L 213.9 143.804 L 264.6 143.804 L 267.3 104.104 L 265 104.004 C 263.8 122.904 259.5 127.704 244 127.704 L 215.8 127.704 C 251.6 117.204 267.2 89.704 267.2 62.804 C 267.2 31.704 244.4 0.004 202.6 0.004 C 160.7 0.004 138.8 32.004 138.8 62.804 C 138.8 89.604 154 117.004 190.2 127.704 Z" id="1" vector-effect="non-scaling-stroke"/><path d="M 450.4 3.804 L 410.8 3.804 L 371.9 113.804 L 330.3 3.804 L 288.9 3.804 L 288.9 6.104 L 308.4 6.104 L 308.4 101.204 C 308.4 130.204 301.7 141.504 286.3 141.504 L 284.9 141.504 L 284.9 143.804 L 333.7 143.804 L 333.7 141.504 L 332.3 141.504 C 316.2 141.504 310.8 130.204 310.8 101.204 L 310.8 9.004 L 361.5 143.804 L 364.2 143.804 L 412.1 7.404 L 412.1 141.504 L 393.6 141.504 L 393.6 143.804 L 450.4 143.804 L 450.4 141.504 L 431.8 141.504 L 431.8 6.104 L 450.4 6.104 L 450.4 3.804 Z" id="2" vector-effect="non-scaling-stroke"/><path d="M 463.6 3.804 L 463.6 6.104 L 482.2 6.104 L 482.2 141.504 L 463.6 141.504 L 463.6 143.804 L 522.5 143.804 L 522.5 141.504 L 501.8 141.504 L 501.8 83.304 C 507.2 85.304 514.2 86.304 522.5 86.304 C 559.4 86.304 574 66.204 574 45.604 C 574 20.004 552.2 3.804 518.7 3.804 L 463.6 3.804 Z M 501.8 80.904 L 501.8 6.104 L 512.3 6.104 C 535.7 6.104 552.4 17.304 552.4 44.904 C 552.4 65.604 545.6 83.904 519.2 83.904 C 512.1 83.904 506.2 82.704 501.8 80.904 Z" id="3" vector-effect="non-scaling-stroke"/><path d="M 678.5 3.804 L 678.5 6.104 L 680 6.104 C 695.6 6.104 701.5 17.504 701.5 46.304 L 701.5 93.104 C 701.5 130.404 684.8 144.504 659.3 144.504 C 634.2 144.504 624.3 129.904 624.3 98.804 L 624.3 6.104 L 642.7 6.104 L 642.7 3.804 L 586 3.804 L 586 6.104 L 604.6 6.104 L 604.6 96.604 C 604.6 133.404 624 147.604 654.6 147.604 C 685 147.604 704 133.504 704 92.904 L 704 46.304 C 704 17.604 710.7 6.104 725.8 6.104 L 727.2 6.104 L 727.2 3.804 L 678.5 3.804 Z" id="4" vector-effect="non-scaling-stroke"/><path d="M 739.5 3.804 L 737.8 50.104 L 740 50.204 L 740.5 41.504 C 741.5 22.604 748.5 6.104 778.8 6.104 L 788.6 6.104 L 788.6 141.504 L 770 141.504 L 770 143.804 L 826.8 143.804 L 826.8 141.504 L 808.2 141.504 L 808.2 6.104 L 818 6.104 C 848.3 6.104 855.1 22.704 856.3 41.504 L 856.9 50.204 L 859.1 50.104 L 857.3 3.804 L 739.5 3.804 Z" id="5" vector-effect="non-scaling-stroke"/><path d="M 936.9 141.504 L 910.6 141.504 L 910.6 74.504 L 918.9 74.504 C 923.9 74.504 928.7 74.704 932 75.504 C 940.5 77.504 945.2 85.604 945.8 100.704 L 948 100.704 L 948 46.104 L 945.8 46.104 C 945.3 58.504 940.6 68.904 931.6 71.204 C 928.1 72.104 923.3 72.304 918.9 72.304 L 910.6 72.304 L 910.6 6.104 L 936.7 6.104 C 967 6.104 974.9 21.604 976 41.204 L 976.5 50.504 L 978.7 50.504 L 977.1 3.804 L 872.4 3.804 L 872.4 6.104 L 891 6.104 L 891 141.504 L 872.4 141.504 L 872.4 143.804 L 978.1 143.804 L 980.4 94.704 L 978 94.704 L 977.5 105.004 C 976.3 126.604 966.2 141.504 936.9 141.504 Z" id="6" vector-effect="non-scaling-stroke"/><path d="M 1055.7 3.804 L 998.6 3.804 L 998.6 6.104 L 1017.2 6.104 L 1017.2 141.504 L 998.6 141.504 L 998.6 143.804 L 1055.4 143.804 L 1055.4 141.504 L 1036.8 141.504 L 1036.8 74.704 C 1076.9 75.904 1080.3 76.904 1083.7 107.904 C 1086.6 133.904 1091.9 146.404 1107.4 146.404 C 1119.5 146.404 1124.6 137.004 1125.4 121.204 L 1123.2 121.004 C 1122.5 133.704 1118.7 141.904 1112.9 141.904 C 1106.7 141.904 1105.3 133.204 1104.8 118.704 C 1103.7 86.704 1096.5 76.304 1056.7 74.104 C 1056.8 74.104 1056.8 74.004 1056.7 74.004 C 1078.4 72.704 1104.8 64.804 1104.8 39.404 C 1104.8 17.304 1086.1 3.804 1055.7 3.804 Z M 1036.8 6.104 L 1049.5 6.104 C 1072.7 6.104 1083.3 17.804 1083.3 40.504 C 1083.3 53.004 1080.1 64.804 1069.2 69.404 C 1063.3 71.904 1055.4 72.604 1048.8 72.604 C 1044.8 72.604 1040.2 72.504 1036.8 72.404 L 1036.8 6.104 Z" id="7" vector-effect="non-scaling-stroke"/></g></svg>