<svg width="1066.562" height="75.042" viewBox="0 0 1066.562 75.042" xmlns="http://www.w3.org/2000/svg"><g id="svgGroup" stroke-linecap="round" fill-rule="evenodd" font-size="9pt" stroke="#000" stroke-width="0.25mm" fill="#000000" style="stroke:#000;stroke-width:0.25mm;fill:#000000"><path d="M 66.2 1.522 L 50.36 1.522 L 34.8 45.522 L 18.16 1.522 L 1.6 1.522 L 1.6 2.442 L 9.4 2.442 L 9.4 40.482 C 9.4 52.082 6.72 56.602 0.56 56.602 L 0 56.602 L 0 57.522 L 19.52 57.522 L 19.52 56.602 L 18.96 56.602 C 12.52 56.602 10.36 52.082 10.36 40.482 L 10.36 3.602 L 30.64 57.522 L 31.72 57.522 L 50.88 2.962 L 50.88 56.602 L 43.48 56.602 L 43.48 57.522 L 66.2 57.522 L 66.2 56.602 L 58.76 56.602 L 58.76 2.442 L 66.2 2.442 L 66.2 1.522 Z" id="0" vector-effect="non-scaling-stroke"/><path d="M 100.08 54.602 L 100.08 34.682 C 100.08 25.002 94.6 19.642 85.56 19.642 C 78.4 19.642 73.68 23.162 73.68 27.842 C 73.68 30.882 75.68 32.522 77.92 32.522 C 80.2 32.522 81.68 30.762 81.68 28.682 C 81.68 26.682 80.2 24.962 78.04 24.962 C 76.04 24.962 74.88 26.322 74.48 27.882 C 74.48 24.202 78.04 20.682 84.4 20.682 C 90.8 20.682 93.6 24.362 93.6 29.282 C 93.6 36.642 87.12 38.682 80.76 40.322 C 74.24 42.042 71.2 43.922 71.2 48.922 C 71.2 55.842 77.48 58.562 82.44 58.562 C 87.92 58.562 92.28 55.082 93.44 52.042 C 93.64 55.762 95.52 58.562 99.56 58.562 C 102.76 58.562 105.08 56.682 106.32 54.442 L 105.72 53.802 C 104.72 55.682 103.36 56.722 101.96 56.722 C 100.68 56.722 100.08 55.842 100.08 54.602 Z M 93.44 33.682 L 93.44 50.202 C 92.96 52.562 89.6 57.042 84.72 57.042 C 81.28 57.042 78 54.802 78 48.442 C 78 44.762 79.04 42.362 80.28 41.362 C 87.36 39.682 91.76 37.722 93.44 33.682 Z" id="1" vector-effect="non-scaling-stroke"/><path d="M 141.8 50.762 L 141.12 50.242 C 138.8 54.162 134.44 57.202 129.36 57.202 C 120.56 57.202 117.04 48.562 117.04 39.082 C 117.04 29.482 120.52 20.722 129.24 20.722 C 135.44 20.722 139.88 24.842 139.96 28.482 C 139.48 26.762 137.88 25.602 136.16 25.602 C 134.04 25.602 132.36 27.362 132.36 29.522 C 132.36 31.722 134.08 33.522 136.44 33.522 C 138.88 33.522 140.8 31.682 140.8 28.722 C 140.8 23.602 135.04 19.642 128.2 19.642 C 119.28 19.642 109.72 26.842 109.72 39.042 C 109.72 51.402 119.48 58.562 128.12 58.562 C 133.92 58.562 139.28 55.122 141.8 50.762 Z" id="2" vector-effect="non-scaling-stroke"/><path d="M 157.68 32.642 L 157.68 0.442 C 153.76 1.282 150 1.522 144.68 1.522 L 144.68 2.442 L 151.04 2.442 L 151.04 56.602 L 144.68 56.602 L 144.68 57.522 L 164 57.522 L 164 56.602 L 157.68 56.602 L 157.68 37.482 C 157.72 32.122 161.4 21.322 168.88 21.322 C 172.48 21.322 174.76 23.882 174.76 29.522 L 174.76 56.602 L 168.64 56.602 L 168.64 57.522 L 187.76 57.522 L 187.76 56.602 L 181.4 56.602 L 181.4 32.842 C 181.4 24.362 177.68 19.642 170.96 19.642 C 162.72 19.642 159.04 27.042 157.68 32.642 Z" id="3" vector-effect="non-scaling-stroke"/><path d="M 189.92 20.642 L 189.92 21.562 L 196.28 21.562 L 196.28 56.602 L 189.92 56.602 L 189.92 57.522 L 209.28 57.522 L 209.28 56.602 L 202.92 56.602 L 202.92 19.562 C 199 20.402 195.24 20.642 189.92 20.642 Z M 203.44 8.002 C 203.44 5.762 201.68 4.122 199.56 4.122 C 197.4 4.122 195.68 5.762 195.68 8.002 C 195.68 10.242 197.4 11.882 199.56 11.882 C 201.68 11.882 203.44 10.242 203.44 8.002 Z" id="4" vector-effect="non-scaling-stroke"/><path d="M 224.32 31.602 L 224.32 19.562 C 220.4 20.402 216.68 20.642 211.32 20.642 L 211.32 21.562 L 217.68 21.562 L 217.68 56.602 L 211.32 56.602 L 211.32 57.522 L 230.36 57.522 L 230.36 56.602 L 224.32 56.602 L 224.32 36.602 C 224.36 31.802 227.4 21.322 234.72 21.322 C 238.32 21.322 240.68 23.802 240.68 29.762 L 240.68 56.602 L 234.72 56.602 L 234.72 57.522 L 253.68 57.522 L 253.68 56.602 L 247.36 56.602 L 247.36 32.802 C 247.36 24.402 243.6 19.642 236.84 19.642 C 228.8 19.642 225.6 26.482 224.32 31.602 Z" id="5" vector-effect="non-scaling-stroke"/><path d="M 264.64 37.162 L 289.6 37.162 C 289.64 36.762 289.64 36.322 289.64 35.922 C 289.64 27.722 285.08 19.642 275.36 19.642 C 265.84 19.642 257.32 27.842 257.32 39.122 C 257.32 50.722 266.32 58.562 275.52 58.562 C 281.56 58.562 286.84 55.042 289.48 50.562 L 288.76 50.042 C 286.4 54.082 282.04 57.202 276.92 57.202 C 268.24 57.202 264.4 49.442 264.64 37.162 Z M 282.24 36.242 L 264.68 36.242 C 265.16 27.802 268.24 20.522 274.24 20.522 C 280.08 20.522 282.28 27.802 282.28 34.802 C 282.28 35.282 282.28 35.762 282.24 36.242 Z" id="6" vector-effect="non-scaling-stroke"/><path d="M 320.6 32.242 L 319.96 19.642 L 319.24 19.642 C 318.64 21.402 317.16 22.602 315.16 22.602 C 313.84 21.442 311.04 19.642 307.2 19.642 C 301.8 19.642 296.48 23.042 296.48 29.962 C 296.48 36.282 300.96 39.602 307.72 41.922 C 314.48 44.202 318.48 45.682 318.48 50.522 C 318.48 54.762 315.2 57.682 310.08 57.682 C 302.48 57.682 297.32 50.482 296.64 44.922 L 295.76 44.962 L 296.44 58.082 L 297.16 58.082 C 297.84 56.242 299.24 55.242 301 54.842 C 303.12 56.762 306.08 58.562 310.16 58.562 C 316.88 58.562 322.32 53.802 322.32 46.762 C 322.32 39.522 316.64 37.362 310.24 35.122 C 303.88 32.922 299.56 31.042 299.56 26.682 C 299.56 23.162 302.76 20.522 307.2 20.522 C 313.44 20.522 318.8 25.802 319.72 32.282 L 320.6 32.242 Z" id="7" vector-effect="non-scaling-stroke"/><path d="M 351.12 1.522 L 350.44 20.042 L 351.32 20.082 L 351.52 16.602 C 351.92 9.042 354.72 2.442 366.84 2.442 L 370.76 2.442 L 370.76 56.602 L 363.32 56.602 L 363.32 57.522 L 386.04 57.522 L 386.04 56.602 L 378.6 56.602 L 378.6 2.442 L 382.52 2.442 C 394.64 2.442 397.36 9.082 397.84 16.602 L 398.08 20.082 L 398.96 20.042 L 398.24 1.522 L 351.12 1.522 Z" id="9" vector-effect="non-scaling-stroke"/><path d="M 415.48 32.642 L 415.48 0.442 C 411.56 1.282 407.8 1.522 402.48 1.522 L 402.48 2.442 L 408.84 2.442 L 408.84 56.602 L 402.48 56.602 L 402.48 57.522 L 421.8 57.522 L 421.8 56.602 L 415.48 56.602 L 415.48 37.482 C 415.52 32.122 419.2 21.322 426.68 21.322 C 430.28 21.322 432.56 23.882 432.56 29.522 L 432.56 56.602 L 426.44 56.602 L 426.44 57.522 L 445.56 57.522 L 445.56 56.602 L 439.2 56.602 L 439.2 32.842 C 439.2 24.362 435.48 19.642 428.76 19.642 C 420.52 19.642 416.84 27.042 415.48 32.642 Z" id="10" vector-effect="non-scaling-stroke"/><path d="M 477.76 54.602 L 477.76 34.682 C 477.76 25.002 472.28 19.642 463.24 19.642 C 456.08 19.642 451.36 23.162 451.36 27.842 C 451.36 30.882 453.36 32.522 455.6 32.522 C 457.88 32.522 459.36 30.762 459.36 28.682 C 459.36 26.682 457.88 24.962 455.72 24.962 C 453.72 24.962 452.56 26.322 452.16 27.882 C 452.16 24.202 455.72 20.682 462.08 20.682 C 468.48 20.682 471.28 24.362 471.28 29.282 C 471.28 36.642 464.8 38.682 458.44 40.322 C 451.92 42.042 448.88 43.922 448.88 48.922 C 448.88 55.842 455.16 58.562 460.12 58.562 C 465.6 58.562 469.96 55.082 471.12 52.042 C 471.32 55.762 473.2 58.562 477.24 58.562 C 480.44 58.562 482.76 56.682 484 54.442 L 483.4 53.802 C 482.4 55.682 481.04 56.722 479.64 56.722 C 478.36 56.722 477.76 55.842 477.76 54.602 Z M 471.12 33.682 L 471.12 50.202 C 470.64 52.562 467.28 57.042 462.4 57.042 C 458.96 57.042 455.68 54.802 455.68 48.442 C 455.68 44.762 456.72 42.362 457.96 41.362 C 465.04 39.682 469.44 37.722 471.12 33.682 Z" id="11" vector-effect="non-scaling-stroke"/><path d="M 498.24 51.082 L 498.24 21.562 L 507.92 21.562 L 507.92 20.642 L 498.24 20.642 L 498.24 8.602 C 496.92 10.722 493.92 13.202 491.56 13.882 L 491.56 20.642 L 485.68 20.642 L 485.68 21.562 L 491.56 21.562 L 491.56 46.722 C 491.56 53.842 493.72 58.562 500.2 58.562 C 504.24 58.562 506.76 56.402 508.28 54.042 L 507.56 53.562 C 506.64 55.042 504.68 57.042 502.24 57.042 C 499.92 57.042 498.24 55.482 498.24 51.082 Z" id="12" vector-effect="non-scaling-stroke"/><path d="M 572 20.442 L 572.88 20.402 L 572.24 0.002 L 571.44 0.002 C 571.04 2.362 568.88 4.562 565.84 4.682 C 563.28 2.362 559.24 0.002 553.52 0.002 C 544.6 0.002 537.84 6.122 537.84 15.202 C 537.84 24.162 543.88 27.962 553.52 31.882 C 565.24 36.682 570.52 39.202 570.52 46.402 C 570.52 53.402 564.96 58.122 557.24 58.122 C 547.2 58.122 538.32 50.322 537.68 37.882 L 536.76 37.882 L 537.64 58.922 L 538.44 58.922 C 538.96 56.122 541.28 54.042 543.92 53.842 C 547.04 56.722 551.44 59.042 557.48 59.042 C 567.44 59.042 575.32 52.722 575.32 42.362 C 575.32 32.522 568.4 28.722 556.68 23.562 C 547.4 19.442 542 16.842 542 10.402 C 542 4.602 546.48 0.922 553.32 0.922 C 564.56 0.922 571.52 10.122 572 20.442 Z" id="14" vector-effect="non-scaling-stroke"/><path d="M 586.72 74.122 L 580.36 74.122 L 580.36 75.042 L 599.72 75.042 L 599.72 74.122 L 593.36 74.122 L 593.36 51.082 C 594.64 55.162 598.8 58.562 604.76 58.562 C 614.08 58.562 621.44 50.122 621.44 38.882 C 621.44 27.562 614.04 19.642 604.92 19.642 C 598.16 19.642 594.64 23.842 593.36 27.082 L 593.36 19.562 C 589.44 20.402 585.68 20.642 580.36 20.642 L 580.36 21.562 L 586.72 21.562 L 586.72 74.122 Z M 593.72 49.962 C 593.12 47.562 592.84 42.522 592.84 37.962 C 592.84 34.482 593 31.242 593.28 29.682 C 594.04 25.562 597.88 20.802 603.56 20.802 C 610.8 20.802 614.08 29.122 614.08 38.762 C 614.08 48.122 611.04 57.242 603.24 57.242 C 598.16 57.242 594.64 53.642 593.72 49.962 Z" id="15" vector-effect="non-scaling-stroke"/><path d="M 655.36 54.602 L 655.36 34.682 C 655.36 25.002 649.88 19.642 640.84 19.642 C 633.68 19.642 628.96 23.162 628.96 27.842 C 628.96 30.882 630.96 32.522 633.2 32.522 C 635.48 32.522 636.96 30.762 636.96 28.682 C 636.96 26.682 635.48 24.962 633.32 24.962 C 631.32 24.962 630.16 26.322 629.76 27.882 C 629.76 24.202 633.32 20.682 639.68 20.682 C 646.08 20.682 648.88 24.362 648.88 29.282 C 648.88 36.642 642.4 38.682 636.04 40.322 C 629.52 42.042 626.48 43.922 626.48 48.922 C 626.48 55.842 632.76 58.562 637.72 58.562 C 643.2 58.562 647.56 55.082 648.72 52.042 C 648.92 55.762 650.8 58.562 654.84 58.562 C 658.04 58.562 660.36 56.682 661.6 54.442 L 661 53.802 C 660 55.682 658.64 56.722 657.24 56.722 C 655.96 56.722 655.36 55.842 655.36 54.602 Z M 648.72 33.682 L 648.72 50.202 C 648.24 52.562 644.88 57.042 640 57.042 C 636.56 57.042 633.28 54.802 633.28 48.442 C 633.28 44.762 634.32 42.362 635.56 41.362 C 642.64 39.682 647.04 37.722 648.72 33.682 Z" id="16" vector-effect="non-scaling-stroke"/><path d="M 676.52 31.602 L 676.52 19.562 C 672.6 20.402 668.88 20.642 663.52 20.642 L 663.52 21.562 L 669.88 21.562 L 669.88 56.602 L 663.52 56.602 L 663.52 57.522 L 682.56 57.522 L 682.56 56.602 L 676.52 56.602 L 676.52 36.602 C 676.56 31.802 679.6 21.322 686.92 21.322 C 690.52 21.322 692.88 23.802 692.88 29.762 L 692.88 56.602 L 686.92 56.602 L 686.92 57.522 L 705.88 57.522 L 705.88 56.602 L 699.56 56.602 L 699.56 32.802 C 699.56 24.402 695.8 19.642 689.04 19.642 C 681 19.642 677.8 26.482 676.52 31.602 Z" id="17" vector-effect="non-scaling-stroke"/><path d="M 768.4 1.522 L 768.4 2.442 L 769 2.442 C 775.24 2.442 777.6 7.002 777.6 18.522 L 777.6 37.242 C 777.6 52.162 770.92 57.802 760.72 57.802 C 750.68 57.802 746.72 51.962 746.72 39.522 L 746.72 2.442 L 754.08 2.442 L 754.08 1.522 L 731.4 1.522 L 731.4 2.442 L 738.84 2.442 L 738.84 38.642 C 738.84 53.362 746.6 59.042 758.84 59.042 C 771 59.042 778.6 53.402 778.6 37.162 L 778.6 18.522 C 778.6 7.042 781.28 2.442 787.32 2.442 L 787.88 2.442 L 787.88 1.522 L 768.4 1.522 Z" id="19" vector-effect="non-scaling-stroke"/><path d="M 803.64 31.602 L 803.64 19.562 C 799.72 20.402 796 20.642 790.64 20.642 L 790.64 21.562 L 797 21.562 L 797 56.602 L 790.64 56.602 L 790.64 57.522 L 809.68 57.522 L 809.68 56.602 L 803.64 56.602 L 803.64 36.602 C 803.68 31.802 806.72 21.322 814.04 21.322 C 817.64 21.322 820 23.802 820 29.762 L 820 56.602 L 814.04 56.602 L 814.04 57.522 L 833 57.522 L 833 56.602 L 826.68 56.602 L 826.68 32.802 C 826.68 24.402 822.92 19.642 816.16 19.642 C 808.12 19.642 804.92 26.482 803.64 31.602 Z" id="20" vector-effect="non-scaling-stroke"/><path d="M 835.16 20.642 L 835.16 21.562 L 841.52 21.562 L 841.52 56.602 L 835.16 56.602 L 835.16 57.522 L 854.52 57.522 L 854.52 56.602 L 848.16 56.602 L 848.16 19.562 C 844.24 20.402 840.48 20.642 835.16 20.642 Z M 848.68 8.002 C 848.68 5.762 846.92 4.122 844.8 4.122 C 842.64 4.122 840.92 5.762 840.92 8.002 C 840.92 10.242 842.64 11.882 844.8 11.882 C 846.92 11.882 848.68 10.242 848.68 8.002 Z" id="21" vector-effect="non-scaling-stroke"/><path d="M 880.64 21.562 L 881.04 21.562 C 884.4 21.562 885.92 23.282 885.92 26.362 C 885.92 28.322 885.32 30.842 884.16 33.802 L 878.08 49.362 L 867.68 21.562 L 873.64 21.562 L 873.64 20.642 L 856.2 20.642 L 856.2 21.562 L 860.68 21.562 L 874.68 58.082 L 875.56 58.082 L 885.2 33.642 C 888.04 26.482 890.76 21.562 894.72 21.562 L 894.88 21.562 L 894.88 20.642 L 880.64 20.642 L 880.64 21.562 Z" id="22" vector-effect="non-scaling-stroke"/><path d="M 905.72 37.162 L 930.68 37.162 C 930.72 36.762 930.72 36.322 930.72 35.922 C 930.72 27.722 926.16 19.642 916.44 19.642 C 906.92 19.642 898.4 27.842 898.4 39.122 C 898.4 50.722 907.4 58.562 916.6 58.562 C 922.64 58.562 927.92 55.042 930.56 50.562 L 929.84 50.042 C 927.48 54.082 923.12 57.202 918 57.202 C 909.32 57.202 905.48 49.442 905.72 37.162 Z M 923.32 36.242 L 905.76 36.242 C 906.24 27.802 909.32 20.522 915.32 20.522 C 921.16 20.522 923.36 27.802 923.36 34.802 C 923.36 35.282 923.36 35.762 923.32 36.242 Z" id="23" vector-effect="non-scaling-stroke"/><path d="M 947.96 35.202 L 947.96 19.562 C 944 20.402 940.2 20.642 934.8 20.642 L 934.8 21.562 L 941.16 21.562 L 941.16 56.602 L 934.8 56.602 L 934.8 57.522 L 954.68 57.522 L 954.68 56.602 L 947.96 56.602 L 947.96 42.762 C 947.96 32.842 951.08 20.482 958.88 20.482 C 961.64 20.482 963.12 22.002 963.64 23.602 C 962.96 22.442 961.72 21.722 960.32 21.722 C 958.28 21.722 956.52 23.362 956.52 25.602 C 956.52 27.802 958.36 29.482 960.52 29.482 C 962.76 29.482 964.68 27.722 964.68 24.962 C 964.68 22.002 962.56 19.642 958.84 19.642 C 952.4 19.642 949 27.242 947.96 35.202 Z" id="24" vector-effect="non-scaling-stroke"/><path d="M 994.12 32.242 L 993.48 19.642 L 992.76 19.642 C 992.16 21.402 990.68 22.602 988.68 22.602 C 987.36 21.442 984.56 19.642 980.72 19.642 C 975.32 19.642 970 23.042 970 29.962 C 970 36.282 974.48 39.602 981.24 41.922 C 988 44.202 992 45.682 992 50.522 C 992 54.762 988.72 57.682 983.6 57.682 C 976 57.682 970.84 50.482 970.16 44.922 L 969.28 44.962 L 969.96 58.082 L 970.68 58.082 C 971.36 56.242 972.76 55.242 974.52 54.842 C 976.64 56.762 979.6 58.562 983.68 58.562 C 990.4 58.562 995.84 53.802 995.84 46.762 C 995.84 39.522 990.16 37.362 983.76 35.122 C 977.4 32.922 973.08 31.042 973.08 26.682 C 973.08 23.162 976.28 20.522 980.72 20.522 C 986.96 20.522 992.32 25.802 993.24 32.282 L 994.12 32.242 Z" id="25" vector-effect="non-scaling-stroke"/><path d="M 1008.88 37.162 L 1033.84 37.162 C 1033.88 36.762 1033.88 36.322 1033.88 35.922 C 1033.88 27.722 1029.32 19.642 1019.6 19.642 C 1010.08 19.642 1001.56 27.842 1001.56 39.122 C 1001.56 50.722 1010.56 58.562 1019.76 58.562 C 1025.8 58.562 1031.08 55.042 1033.72 50.562 L 1033 50.042 C 1030.64 54.082 1026.28 57.202 1021.16 57.202 C 1012.48 57.202 1008.64 49.442 1008.88 37.162 Z M 1026.48 36.242 L 1008.92 36.242 C 1009.4 27.802 1012.48 20.522 1018.48 20.522 C 1024.32 20.522 1026.52 27.802 1026.52 34.802 C 1026.52 35.282 1026.52 35.762 1026.48 36.242 Z" id="26" vector-effect="non-scaling-stroke"/><path d="M 1064.84 32.242 L 1064.2 19.642 L 1063.48 19.642 C 1062.88 21.402 1061.4 22.602 1059.4 22.602 C 1058.08 21.442 1055.28 19.642 1051.44 19.642 C 1046.04 19.642 1040.72 23.042 1040.72 29.962 C 1040.72 36.282 1045.2 39.602 1051.96 41.922 C 1058.72 44.202 1062.72 45.682 1062.72 50.522 C 1062.72 54.762 1059.44 57.682 1054.32 57.682 C 1046.72 57.682 1041.56 50.482 1040.88 44.922 L 1040 44.962 L 1040.68 58.082 L 1041.4 58.082 C 1042.08 56.242 1043.48 55.242 1045.24 54.842 C 1047.36 56.762 1050.32 58.562 1054.4 58.562 C 1061.12 58.562 1066.56 53.802 1066.56 46.762 C 1066.56 39.522 1060.88 37.362 1054.48 35.122 C 1048.12 32.922 1043.8 31.042 1043.8 26.682 C 1043.8 23.162 1047 20.522 1051.44 20.522 C 1057.68 20.522 1063.04 25.802 1063.96 32.282 L 1064.84 32.242 Z" id="27" vector-effect="non-scaling-stroke"/></g></svg>