<svg width="782.8" height="145.215" viewBox="0 0 782.8 145.215" xmlns="http://www.w3.org/2000/svg"><g id="svgGroup" stroke-linecap="round" fill-rule="evenodd" font-size="9pt" stroke="#000" stroke-width="0.25mm" fill="#000000" style="stroke:#000;stroke-width:0.25mm;fill:#000000"><path d="M 0 2.6 L 0 4.9 L 18.6 4.9 L 18.6 140.3 L 0 140.3 L 0 142.6 L 58.9 142.6 L 58.9 140.3 L 38.2 140.3 L 38.2 82.1 C 43.6 84.1 50.6 85.1 58.9 85.1 C 95.8 85.1 110.4 65 110.4 44.4 C 110.4 18.8 88.6 2.6 55.1 2.6 L 0 2.6 Z M 38.2 79.7 L 38.2 4.9 L 48.7 4.9 C 72.1 4.9 88.8 16.1 88.8 43.7 C 88.8 64.4 82 82.7 55.6 82.7 C 48.5 82.7 42.6 81.5 38.2 79.7 Z" id="0" vector-effect="non-scaling-stroke"/><path d="M 186.9 0 L 184.7 0 L 148.3 104 C 137.8 134.1 132 140.3 118.9 140.3 L 118.7 140.3 L 118.7 142.6 L 165.9 142.6 L 165.9 140.3 L 164.6 140.3 C 155.3 140.3 147.7 138.2 147.7 124.6 C 147.7 117.4 149.8 106.9 155 91.7 L 199.6 91.7 L 217.3 140.3 L 201.2 140.3 L 201.2 142.6 L 253 142.6 L 253 140.3 L 238.7 140.3 L 186.9 0 Z M 176.9 29.3 L 198.8 89.4 L 155.8 89.4 L 176.9 29.3 Z" id="1" vector-effect="non-scaling-stroke"/><path d="M 318.4 2.6 L 261.3 2.6 L 261.3 4.9 L 279.9 4.9 L 279.9 140.3 L 261.3 140.3 L 261.3 142.6 L 318.1 142.6 L 318.1 140.3 L 299.5 140.3 L 299.5 73.5 C 339.6 74.7 343 75.7 346.4 106.7 C 349.3 132.7 354.6 145.2 370.1 145.2 C 382.2 145.2 387.3 135.8 388.1 120 L 385.9 119.8 C 385.2 132.5 381.4 140.7 375.6 140.7 C 369.4 140.7 368 132 367.5 117.5 C 366.4 85.5 359.2 75.1 319.4 72.9 C 319.5 72.9 319.5 72.8 319.4 72.8 C 341.1 71.5 367.5 63.6 367.5 38.2 C 367.5 16.1 348.8 2.6 318.4 2.6 Z M 299.5 4.9 L 312.2 4.9 C 335.4 4.9 346 16.6 346 39.3 C 346 51.8 342.8 63.6 331.9 68.2 C 326 70.7 318.1 71.4 311.5 71.4 C 307.5 71.4 302.9 71.3 299.5 71.2 L 299.5 4.9 Z" id="2" vector-effect="non-scaling-stroke"/><path d="M 397.3 2.6 L 395.6 48.9 L 397.8 49 L 398.3 40.3 C 399.3 21.4 406.3 4.9 436.6 4.9 L 446.4 4.9 L 446.4 140.3 L 427.8 140.3 L 427.8 142.6 L 484.6 142.6 L 484.6 140.3 L 466 140.3 L 466 4.9 L 475.8 4.9 C 506.1 4.9 512.9 21.5 514.1 40.3 L 514.7 49 L 516.9 48.9 L 515.1 2.6 L 397.3 2.6 Z" id="3" vector-effect="non-scaling-stroke"/><path d="M 669.9 4.9 L 671.4 4.9 C 680.7 4.9 686.7 9.9 686.7 22.3 C 686.7 29.9 684.5 40.3 679.4 54 L 656.6 115.6 L 616.6 4.9 L 633.6 4.9 L 633.6 2.6 L 581.3 2.6 L 581.3 4.9 L 595.7 4.9 L 646.3 144 L 648.5 144 L 681.3 55.9 C 695.7 17.3 702.8 4.9 717.1 4.9 L 717.7 4.9 L 717.7 2.6 L 669.9 2.6 L 669.9 4.9 Z" id="5" vector-effect="non-scaling-stroke"/><path d="M 782.8 4.9 L 782.8 2.6 L 726 2.6 L 726 4.9 L 744.6 4.9 L 744.6 140.3 L 726 140.3 L 726 142.6 L 782.8 142.6 L 782.8 140.3 L 764.2 140.3 L 764.2 4.9 L 782.8 4.9 Z" id="6" vector-effect="non-scaling-stroke"/></g></svg>