<svg width="842.65" height="58.606" viewBox="0 0 842.65 58.606" xmlns="http://www.w3.org/2000/svg"><g id="svgGroup" stroke-linecap="round" fill-rule="evenodd" font-size="9pt" stroke="#000" stroke-width="0.25mm" fill="#000000" style="stroke:#000;stroke-width:0.25mm;fill:#000000"><path d="M 0.68 1.08 L 0 19.6 L 0.88 19.64 L 1.08 16.16 C 1.48 8.6 4.28 2 16.4 2 L 20.32 2 L 20.32 56.16 L 12.88 56.16 L 12.88 57.08 L 35.6 57.08 L 35.6 56.16 L 28.16 56.16 L 28.16 2 L 32.08 2 C 44.2 2 46.92 8.64 47.4 16.16 L 47.64 19.64 L 48.52 19.6 L 47.8 1.08 L 0.68 1.08 Z" id="0" vector-effect="non-scaling-stroke"/><path d="M 65.04 32.2 L 65.04 0 C 61.12 0.84 57.36 1.08 52.04 1.08 L 52.04 2 L 58.4 2 L 58.4 56.16 L 52.04 56.16 L 52.04 57.08 L 71.36 57.08 L 71.36 56.16 L 65.04 56.16 L 65.04 37.04 C 65.08 31.68 68.76 20.88 76.24 20.88 C 79.84 20.88 82.12 23.44 82.12 29.08 L 82.12 56.16 L 76 56.16 L 76 57.08 L 95.12 57.08 L 95.12 56.16 L 88.76 56.16 L 88.76 32.4 C 88.76 23.92 85.04 19.2 78.32 19.2 C 70.08 19.2 66.4 26.6 65.04 32.2 Z" id="1" vector-effect="non-scaling-stroke"/><path d="M 106.08 36.72 L 131.04 36.72 C 131.08 36.32 131.08 35.88 131.08 35.48 C 131.08 27.28 126.52 19.2 116.8 19.2 C 107.28 19.2 98.76 27.4 98.76 38.68 C 98.76 50.28 107.76 58.12 116.96 58.12 C 123 58.12 128.28 54.6 130.92 50.12 L 130.2 49.6 C 127.84 53.64 123.48 56.76 118.36 56.76 C 109.68 56.76 105.84 49 106.08 36.72 Z M 123.68 35.8 L 106.12 35.8 C 106.6 27.36 109.68 20.08 115.68 20.08 C 121.52 20.08 123.72 27.36 123.72 34.36 C 123.72 34.84 123.72 35.32 123.68 35.8 Z" id="2" vector-effect="non-scaling-stroke"/><path d="M 195.52 1.08 L 195.52 2 L 196.12 2 C 202.36 2 204.72 6.56 204.72 18.08 L 204.72 36.8 C 204.72 51.72 198.04 57.36 187.84 57.36 C 177.8 57.36 173.84 51.52 173.84 39.08 L 173.84 2 L 181.2 2 L 181.2 1.08 L 158.52 1.08 L 158.52 2 L 165.96 2 L 165.96 38.2 C 165.96 52.92 173.72 58.6 185.96 58.6 C 198.12 58.6 205.72 52.96 205.72 36.72 L 205.72 18.08 C 205.72 6.6 208.4 2 214.44 2 L 215 2 L 215 1.08 L 195.52 1.08 Z" id="4" vector-effect="non-scaling-stroke"/><path d="M 230.76 31.16 L 230.76 19.12 C 226.84 19.96 223.12 20.2 217.76 20.2 L 217.76 21.12 L 224.12 21.12 L 224.12 56.16 L 217.76 56.16 L 217.76 57.08 L 236.8 57.08 L 236.8 56.16 L 230.76 56.16 L 230.76 36.16 C 230.8 31.36 233.84 20.88 241.16 20.88 C 244.76 20.88 247.12 23.36 247.12 29.32 L 247.12 56.16 L 241.16 56.16 L 241.16 57.08 L 260.12 57.08 L 260.12 56.16 L 253.8 56.16 L 253.8 32.36 C 253.8 23.96 250.04 19.2 243.28 19.2 C 235.24 19.2 232.04 26.04 230.76 31.16 Z" id="5" vector-effect="non-scaling-stroke"/><path d="M 262.28 20.2 L 262.28 21.12 L 268.64 21.12 L 268.64 56.16 L 262.28 56.16 L 262.28 57.08 L 281.64 57.08 L 281.64 56.16 L 275.28 56.16 L 275.28 19.12 C 271.36 19.96 267.6 20.2 262.28 20.2 Z M 275.8 7.56 C 275.8 5.32 274.04 3.68 271.92 3.68 C 269.76 3.68 268.04 5.32 268.04 7.56 C 268.04 9.8 269.76 11.44 271.92 11.44 C 274.04 11.44 275.8 9.8 275.8 7.56 Z" id="6" vector-effect="non-scaling-stroke"/><path d="M 307.76 21.12 L 308.16 21.12 C 311.52 21.12 313.04 22.84 313.04 25.92 C 313.04 27.88 312.44 30.4 311.28 33.36 L 305.2 48.92 L 294.8 21.12 L 300.76 21.12 L 300.76 20.2 L 283.32 20.2 L 283.32 21.12 L 287.8 21.12 L 301.8 57.64 L 302.68 57.64 L 312.32 33.2 C 315.16 26.04 317.88 21.12 321.84 21.12 L 322 21.12 L 322 20.2 L 307.76 20.2 L 307.76 21.12 Z" id="7" vector-effect="non-scaling-stroke"/><path d="M 332.84 36.72 L 357.8 36.72 C 357.84 36.32 357.84 35.88 357.84 35.48 C 357.84 27.28 353.28 19.2 343.56 19.2 C 334.04 19.2 325.52 27.4 325.52 38.68 C 325.52 50.28 334.52 58.12 343.72 58.12 C 349.76 58.12 355.04 54.6 357.68 50.12 L 356.96 49.6 C 354.6 53.64 350.24 56.76 345.12 56.76 C 336.44 56.76 332.6 49 332.84 36.72 Z M 350.44 35.8 L 332.88 35.8 C 333.36 27.36 336.44 20.08 342.44 20.08 C 348.28 20.08 350.48 27.36 350.48 34.36 C 350.48 34.84 350.48 35.32 350.44 35.8 Z" id="8" vector-effect="non-scaling-stroke"/><path d="M 375.08 34.76 L 375.08 19.12 C 371.12 19.96 367.32 20.2 361.92 20.2 L 361.92 21.12 L 368.28 21.12 L 368.28 56.16 L 361.92 56.16 L 361.92 57.08 L 381.8 57.08 L 381.8 56.16 L 375.08 56.16 L 375.08 42.32 C 375.08 32.4 378.2 20.04 386 20.04 C 388.76 20.04 390.24 21.56 390.76 23.16 C 390.08 22 388.84 21.28 387.44 21.28 C 385.4 21.28 383.64 22.92 383.64 25.16 C 383.64 27.36 385.48 29.04 387.64 29.04 C 389.88 29.04 391.8 27.28 391.8 24.52 C 391.8 21.56 389.68 19.2 385.96 19.2 C 379.52 19.2 376.12 26.8 375.08 34.76 Z" id="9" vector-effect="non-scaling-stroke"/><path d="M 421.24 31.8 L 420.6 19.2 L 419.88 19.2 C 419.28 20.96 417.8 22.16 415.8 22.16 C 414.48 21 411.68 19.2 407.84 19.2 C 402.44 19.2 397.12 22.6 397.12 29.52 C 397.12 35.84 401.6 39.16 408.36 41.48 C 415.12 43.76 419.12 45.24 419.12 50.08 C 419.12 54.32 415.84 57.24 410.72 57.24 C 403.12 57.24 397.96 50.04 397.28 44.48 L 396.4 44.52 L 397.08 57.64 L 397.8 57.64 C 398.48 55.8 399.88 54.8 401.64 54.4 C 403.76 56.32 406.72 58.12 410.8 58.12 C 417.52 58.12 422.96 53.36 422.96 46.32 C 422.96 39.08 417.28 36.92 410.88 34.68 C 404.52 32.48 400.2 30.6 400.2 26.24 C 400.2 22.72 403.4 20.08 407.84 20.08 C 414.08 20.08 419.44 25.36 420.36 31.84 L 421.24 31.8 Z" id="10" vector-effect="non-scaling-stroke"/><path d="M 436 36.72 L 460.96 36.72 C 461 36.32 461 35.88 461 35.48 C 461 27.28 456.44 19.2 446.72 19.2 C 437.2 19.2 428.68 27.4 428.68 38.68 C 428.68 50.28 437.68 58.12 446.88 58.12 C 452.92 58.12 458.2 54.6 460.84 50.12 L 460.12 49.6 C 457.76 53.64 453.4 56.76 448.28 56.76 C 439.6 56.76 435.76 49 436 36.72 Z M 453.6 35.8 L 436.04 35.8 C 436.52 27.36 439.6 20.08 445.6 20.08 C 451.44 20.08 453.64 27.36 453.64 34.36 C 453.64 34.84 453.64 35.32 453.6 35.8 Z" id="11" vector-effect="non-scaling-stroke"/><path d="M 517.52 54.16 L 517.52 34.24 C 517.52 24.56 512.04 19.2 503 19.2 C 495.84 19.2 491.12 22.72 491.12 27.4 C 491.12 30.44 493.12 32.08 495.36 32.08 C 497.64 32.08 499.12 30.32 499.12 28.24 C 499.12 26.24 497.64 24.52 495.48 24.52 C 493.48 24.52 492.32 25.88 491.92 27.44 C 491.92 23.76 495.48 20.24 501.84 20.24 C 508.24 20.24 511.04 23.92 511.04 28.84 C 511.04 36.2 504.56 38.24 498.2 39.88 C 491.68 41.6 488.64 43.48 488.64 48.48 C 488.64 55.4 494.92 58.12 499.88 58.12 C 505.36 58.12 509.72 54.64 510.88 51.6 C 511.08 55.32 512.96 58.12 517 58.12 C 520.2 58.12 522.52 56.24 523.76 54 L 523.16 53.36 C 522.16 55.24 520.8 56.28 519.4 56.28 C 518.12 56.28 517.52 55.4 517.52 54.16 Z M 510.88 33.24 L 510.88 49.76 C 510.4 52.12 507.04 56.6 502.16 56.6 C 498.72 56.6 495.44 54.36 495.44 48 C 495.44 44.32 496.48 41.92 497.72 40.92 C 504.8 39.24 509.2 37.28 510.88 33.24 Z" id="13" vector-effect="non-scaling-stroke"/><path d="M 552.56 31.8 L 551.92 19.2 L 551.2 19.2 C 550.6 20.96 549.12 22.16 547.12 22.16 C 545.8 21 543 19.2 539.16 19.2 C 533.76 19.2 528.44 22.6 528.44 29.52 C 528.44 35.84 532.92 39.16 539.68 41.48 C 546.44 43.76 550.44 45.24 550.44 50.08 C 550.44 54.32 547.16 57.24 542.04 57.24 C 534.44 57.24 529.28 50.04 528.6 44.48 L 527.72 44.52 L 528.4 57.64 L 529.12 57.64 C 529.8 55.8 531.2 54.8 532.96 54.4 C 535.08 56.32 538.04 58.12 542.12 58.12 C 548.84 58.12 554.28 53.36 554.28 46.32 C 554.28 39.08 548.6 36.92 542.2 34.68 C 535.84 32.48 531.52 30.6 531.52 26.24 C 531.52 22.72 534.72 20.08 539.16 20.08 C 545.4 20.08 550.76 25.36 551.68 31.84 L 552.56 31.8 Z" id="14" vector-effect="non-scaling-stroke"/><path d="M 605.2 1.08 L 582.36 1.08 L 582.36 2 L 589.8 2 L 589.8 56.16 L 582.36 56.16 L 582.36 57.08 L 605.08 57.08 L 605.08 56.16 L 597.64 56.16 L 597.64 29.44 C 613.68 29.92 615.04 30.32 616.4 42.72 C 617.56 53.12 619.68 58.12 625.88 58.12 C 630.72 58.12 632.76 54.36 633.08 48.04 L 632.2 47.96 C 631.92 53.04 630.4 56.32 628.08 56.32 C 625.6 56.32 625.04 52.84 624.84 47.04 C 624.4 34.24 621.52 30.08 605.6 29.2 C 605.64 29.2 605.64 29.16 605.6 29.16 C 614.28 28.64 624.84 25.48 624.84 15.32 C 624.84 6.48 617.36 1.08 605.2 1.08 Z M 597.64 2 L 602.72 2 C 612 2 616.24 6.68 616.24 15.76 C 616.24 20.76 614.96 25.48 610.6 27.32 C 608.24 28.32 605.08 28.6 602.44 28.6 C 600.84 28.6 599 28.56 597.64 28.52 L 597.64 2 Z" id="16" vector-effect="non-scaling-stroke"/><path d="M 643.4 36.72 L 668.36 36.72 C 668.4 36.32 668.4 35.88 668.4 35.48 C 668.4 27.28 663.84 19.2 654.12 19.2 C 644.6 19.2 636.08 27.4 636.08 38.68 C 636.08 50.28 645.08 58.12 654.28 58.12 C 660.32 58.12 665.6 54.6 668.24 50.12 L 667.52 49.6 C 665.16 53.64 660.8 56.76 655.68 56.76 C 647 56.76 643.16 49 643.4 36.72 Z M 661 35.8 L 643.44 35.8 C 643.92 27.36 647 20.08 653 20.08 C 658.84 20.08 661.04 27.36 661.04 34.36 C 661.04 34.84 661.04 35.32 661 35.8 Z" id="17" vector-effect="non-scaling-stroke"/><path d="M 713.6 21.12 L 713.96 21.12 C 717.04 21.12 718.72 22.8 718.72 26.28 C 718.72 28.12 718.28 30.48 717.28 33.36 L 712.52 47.32 L 703.8 21.12 L 708.08 21.12 L 708.08 20.2 L 693.28 20.2 L 693.28 21.12 L 696.72 21.12 L 699 27.8 L 692.32 47.36 L 683.56 21.12 L 688.12 21.12 L 688.12 20.2 L 672.12 20.2 L 672.12 21.12 L 676.48 21.12 L 688.92 57.64 L 689.76 57.64 L 699.48 29.16 L 709.16 57.64 L 710 57.64 L 718.36 33.08 C 720.8 25.88 723.36 21.12 727.32 21.12 L 727.68 21.12 L 727.68 20.2 L 713.6 20.2 L 713.6 21.12 Z" id="18" vector-effect="non-scaling-stroke"/><path d="M 743.04 34.76 L 743.04 19.12 C 739.08 19.96 735.28 20.2 729.88 20.2 L 729.88 21.12 L 736.24 21.12 L 736.24 56.16 L 729.88 56.16 L 729.88 57.08 L 749.76 57.08 L 749.76 56.16 L 743.04 56.16 L 743.04 42.32 C 743.04 32.4 746.16 20.04 753.96 20.04 C 756.72 20.04 758.2 21.56 758.72 23.16 C 758.04 22 756.8 21.28 755.4 21.28 C 753.36 21.28 751.6 22.92 751.6 25.16 C 751.6 27.36 753.44 29.04 755.6 29.04 C 757.84 29.04 759.76 27.28 759.76 24.52 C 759.76 21.56 757.64 19.2 753.92 19.2 C 747.48 19.2 744.08 26.8 743.04 34.76 Z" id="19" vector-effect="non-scaling-stroke"/><path d="M 762.32 20.2 L 762.32 21.12 L 768.68 21.12 L 768.68 56.16 L 762.32 56.16 L 762.32 57.08 L 781.68 57.08 L 781.68 56.16 L 775.32 56.16 L 775.32 19.12 C 771.4 19.96 767.64 20.2 762.32 20.2 Z M 775.84 7.56 C 775.84 5.32 774.08 3.68 771.96 3.68 C 769.8 3.68 768.08 5.32 768.08 7.56 C 768.08 9.8 769.8 11.44 771.96 11.44 C 774.08 11.44 775.84 9.8 775.84 7.56 Z" id="20" vector-effect="non-scaling-stroke"/><path d="M 796.04 50.64 L 796.04 21.12 L 805.72 21.12 L 805.72 20.2 L 796.04 20.2 L 796.04 8.16 C 794.72 10.28 791.72 12.76 789.36 13.44 L 789.36 20.2 L 783.48 20.2 L 783.48 21.12 L 789.36 21.12 L 789.36 46.28 C 789.36 53.4 791.52 58.12 798 58.12 C 802.04 58.12 804.56 55.96 806.08 53.6 L 805.36 53.12 C 804.44 54.6 802.48 56.6 800.04 56.6 C 797.72 56.6 796.04 55.04 796.04 50.64 Z" id="21" vector-effect="non-scaling-stroke"/><path d="M 817.64 36.72 L 842.6 36.72 C 842.64 36.32 842.64 35.88 842.64 35.48 C 842.64 27.28 838.08 19.2 828.36 19.2 C 818.84 19.2 810.32 27.4 810.32 38.68 C 810.32 50.28 819.32 58.12 828.52 58.12 C 834.56 58.12 839.84 54.6 842.48 50.12 L 841.76 49.6 C 839.4 53.64 835.04 56.76 829.92 56.76 C 821.24 56.76 817.4 49 817.64 36.72 Z M 835.24 35.8 L 817.68 35.8 C 818.16 27.36 821.24 20.08 827.24 20.08 C 833.08 20.08 835.28 27.36 835.28 34.36 C 835.28 34.84 835.28 35.32 835.24 35.8 Z" id="22" vector-effect="non-scaling-stroke"/></g></svg>