<svg width="981.4" height="77.12" viewBox="0 0 981.4 77.12" xmlns="http://www.w3.org/2000/svg"><g id="svgGroup" stroke-linecap="round" fill-rule="evenodd" font-size="9pt" stroke="#000" stroke-width="0.25mm" fill="#000000" style="stroke:#000;stroke-width:0.25mm;fill:#000000"><path d="M 0.68 2 L 0 20.52 L 0.88 20.56 L 1.08 17.08 C 1.48 9.52 4.28 2.92 16.4 2.92 L 20.32 2.92 L 20.32 57.08 L 12.88 57.08 L 12.88 58 L 35.6 58 L 35.6 57.08 L 28.16 57.08 L 28.16 2.92 L 32.08 2.92 C 44.2 2.92 46.92 9.56 47.4 17.08 L 47.64 20.56 L 48.52 20.52 L 47.8 2 L 0.68 2 Z" id="0" vector-effect="non-scaling-stroke"/><path d="M 65.04 33.12 L 65.04 0.92 C 61.12 1.76 57.36 2 52.04 2 L 52.04 2.92 L 58.4 2.92 L 58.4 57.08 L 52.04 57.08 L 52.04 58 L 71.36 58 L 71.36 57.08 L 65.04 57.08 L 65.04 37.96 C 65.08 32.6 68.76 21.8 76.24 21.8 C 79.84 21.8 82.12 24.36 82.12 30 L 82.12 57.08 L 76 57.08 L 76 58 L 95.12 58 L 95.12 57.08 L 88.76 57.08 L 88.76 33.32 C 88.76 24.84 85.04 20.12 78.32 20.12 C 70.08 20.12 66.4 27.52 65.04 33.12 Z" id="1" vector-effect="non-scaling-stroke"/><path d="M 106.08 37.64 L 131.04 37.64 C 131.08 37.24 131.08 36.8 131.08 36.4 C 131.08 28.2 126.52 20.12 116.8 20.12 C 107.28 20.12 98.76 28.32 98.76 39.6 C 98.76 51.2 107.76 59.04 116.96 59.04 C 123 59.04 128.28 55.52 130.92 51.04 L 130.2 50.52 C 127.84 54.56 123.48 57.68 118.36 57.68 C 109.68 57.68 105.84 49.92 106.08 37.64 Z M 123.68 36.72 L 106.12 36.72 C 106.6 28.28 109.68 21 115.68 21 C 121.52 21 123.72 28.28 123.72 35.28 C 123.72 35.76 123.72 36.24 123.68 36.72 Z" id="2" vector-effect="non-scaling-stroke"/><path d="M 159 2 L 159 2.92 L 166.44 2.92 L 166.44 57.08 L 159 57.08 L 159 58 L 182.56 58 L 182.56 57.08 L 174.28 57.08 L 174.28 33.8 C 176.44 34.6 179.24 35 182.56 35 C 197.32 35 203.16 26.96 203.16 18.72 C 203.16 8.48 194.44 2 181.04 2 L 159 2 Z M 174.28 32.84 L 174.28 2.92 L 178.48 2.92 C 187.84 2.92 194.52 7.4 194.52 18.44 C 194.52 26.72 191.8 34.04 181.24 34.04 C 178.4 34.04 176.04 33.56 174.28 32.84 Z" id="4" vector-effect="non-scaling-stroke"/><path d="M 219.64 33.12 L 219.64 0.92 C 215.72 1.76 211.96 2 206.64 2 L 206.64 2.92 L 213 2.92 L 213 57.08 L 206.64 57.08 L 206.64 58 L 225.96 58 L 225.96 57.08 L 219.64 57.08 L 219.64 37.96 C 219.68 32.6 223.36 21.8 230.84 21.8 C 234.44 21.8 236.72 24.36 236.72 30 L 236.72 57.08 L 230.6 57.08 L 230.6 58 L 249.72 58 L 249.72 57.08 L 243.36 57.08 L 243.36 33.32 C 243.36 24.84 239.64 20.12 232.92 20.12 C 224.68 20.12 221 27.52 219.64 33.12 Z" id="5" vector-effect="non-scaling-stroke"/><path d="M 269.84 66.84 L 281.72 35.48 C 285.04 26.72 287.24 22.04 291.64 22.04 L 291.96 22.04 L 291.96 21.12 L 277.56 21.12 L 277.56 22.04 L 278.16 22.04 C 281.16 22.04 282.6 24.24 282.6 27.56 C 282.6 29.44 282.16 31.68 281.24 34.12 L 274.12 52.96 L 263.32 22.04 L 269.28 22.04 L 269.28 21.12 L 251.52 21.12 L 251.52 22.04 L 256.32 22.04 L 268.96 58 L 269.64 58 C 271.08 58 271.48 58.52 271.48 59.24 C 271.48 59.72 271.32 60.24 271.12 60.8 L 268.88 66.8 C 266.64 72.72 264.12 76.24 259.72 76.24 C 256.4 76.24 254.12 74 254.12 70.8 C 254.4 72.32 255.68 73.92 257.96 73.92 C 260.04 73.92 261.64 72.36 261.64 70.12 C 261.64 67.84 259.88 66.2 257.56 66.2 C 254.92 66.2 253.28 68.32 253.28 71.08 C 253.28 74.44 255.84 77.12 259.72 77.12 C 264.8 77.12 267.52 72.96 269.84 66.84 Z" id="6" vector-effect="non-scaling-stroke"/><path d="M 320.88 32.72 L 320.24 20.12 L 319.52 20.12 C 318.92 21.88 317.44 23.08 315.44 23.08 C 314.12 21.92 311.32 20.12 307.48 20.12 C 302.08 20.12 296.76 23.52 296.76 30.44 C 296.76 36.76 301.24 40.08 308 42.4 C 314.76 44.68 318.76 46.16 318.76 51 C 318.76 55.24 315.48 58.16 310.36 58.16 C 302.76 58.16 297.6 50.96 296.92 45.4 L 296.04 45.44 L 296.72 58.56 L 297.44 58.56 C 298.12 56.72 299.52 55.72 301.28 55.32 C 303.4 57.24 306.36 59.04 310.44 59.04 C 317.16 59.04 322.6 54.28 322.6 47.24 C 322.6 40 316.92 37.84 310.52 35.6 C 304.16 33.4 299.84 31.52 299.84 27.16 C 299.84 23.64 303.04 21 307.48 21 C 313.72 21 319.08 26.28 320 32.76 L 320.88 32.72 Z" id="7" vector-effect="non-scaling-stroke"/><path d="M 326.84 21.12 L 326.84 22.04 L 333.2 22.04 L 333.2 57.08 L 326.84 57.08 L 326.84 58 L 346.2 58 L 346.2 57.08 L 339.84 57.08 L 339.84 20.04 C 335.92 20.88 332.16 21.12 326.84 21.12 Z M 340.36 8.48 C 340.36 6.24 338.6 4.6 336.48 4.6 C 334.32 4.6 332.6 6.24 332.6 8.48 C 332.6 10.72 334.32 12.36 336.48 12.36 C 338.6 12.36 340.36 10.72 340.36 8.48 Z" id="8" vector-effect="non-scaling-stroke"/><path d="M 381.8 51.24 L 381.12 50.72 C 378.8 54.64 374.44 57.68 369.36 57.68 C 360.56 57.68 357.04 49.04 357.04 39.56 C 357.04 29.96 360.52 21.2 369.24 21.2 C 375.44 21.2 379.88 25.32 379.96 28.96 C 379.48 27.24 377.88 26.08 376.16 26.08 C 374.04 26.08 372.36 27.84 372.36 30 C 372.36 32.2 374.08 34 376.44 34 C 378.88 34 380.8 32.16 380.8 29.2 C 380.8 24.08 375.04 20.12 368.2 20.12 C 359.28 20.12 349.72 27.32 349.72 39.52 C 349.72 51.88 359.48 59.04 368.12 59.04 C 373.92 59.04 379.28 55.6 381.8 51.24 Z" id="9" vector-effect="non-scaling-stroke"/><path d="M 411.92 32.72 L 411.28 20.12 L 410.56 20.12 C 409.96 21.88 408.48 23.08 406.48 23.08 C 405.16 21.92 402.36 20.12 398.52 20.12 C 393.12 20.12 387.8 23.52 387.8 30.44 C 387.8 36.76 392.28 40.08 399.04 42.4 C 405.8 44.68 409.8 46.16 409.8 51 C 409.8 55.24 406.52 58.16 401.4 58.16 C 393.8 58.16 388.64 50.96 387.96 45.4 L 387.08 45.44 L 387.76 58.56 L 388.48 58.56 C 389.16 56.72 390.56 55.72 392.32 55.32 C 394.44 57.24 397.4 59.04 401.48 59.04 C 408.2 59.04 413.64 54.28 413.64 47.24 C 413.64 40 407.96 37.84 401.56 35.6 C 395.2 33.4 390.88 31.52 390.88 27.16 C 390.88 23.64 394.08 21 398.52 21 C 404.76 21 410.12 26.28 411.04 32.76 L 411.92 32.72 Z" id="10" vector-effect="non-scaling-stroke"/><path d="M 459.8 20.12 C 450.52 20.12 441.76 28.24 441.76 39.6 C 441.76 50.88 450.48 59.04 459.84 59.04 C 469.16 59.04 477.92 50.92 477.92 39.6 C 477.92 28.2 469.12 20.12 459.8 20.12 Z M 470.56 39.28 C 470.56 49.76 467.6 58.12 459.84 58.12 C 452.04 58.12 449.08 49.8 449.08 39.16 C 449.08 29.8 451.76 21 459.88 21 C 467.92 21 470.56 29.8 470.56 39.28 Z" id="12" vector-effect="non-scaling-stroke"/><path d="M 488.04 21.12 L 481.6 21.12 L 481.6 22.04 L 488 22.04 C 487.96 22.68 487.96 23.36 487.96 24.04 L 487.96 57.08 L 481.6 57.08 L 481.6 58 L 501.76 58 L 501.76 57.08 L 494.6 57.08 L 494.6 22.04 L 503.2 22.04 L 503.2 21.12 L 494.56 21.12 C 493.64 18.04 493.12 14.68 493.12 11.68 C 493.12 4.76 496.2 0.84 500.88 0.84 C 503.2 0.84 505.12 1.96 505.72 4 C 505.2 3 504.2 1.88 502.32 1.88 C 500.08 1.88 498.52 3.64 498.52 5.68 C 498.52 7.88 500.24 9.56 502.52 9.56 C 504.96 9.56 506.68 7.64 506.68 5.12 C 506.68 2.08 504.28 0 500.88 0 C 494.24 0 488.72 7.68 488.04 21.12 Z" id="13" vector-effect="non-scaling-stroke"/><path d="M 575.92 20.64 L 575.36 0.48 L 574.56 0.48 C 574.2 2.64 572.08 5.04 569.08 5.32 C 566.4 2.8 562.2 0.48 556.52 0.48 C 542.32 0.48 531.24 15.28 531.24 29.76 C 531.24 43.88 541.68 59.52 556.6 59.52 C 561.48 59.52 565.76 57.72 569.52 53.56 C 571.72 54.04 573.96 56.4 574.52 59.52 L 575.32 59.52 L 576.12 38.68 L 575.2 38.68 C 573.96 48.56 567.36 58.56 557.04 58.56 C 544.08 58.56 539.88 43.92 539.88 30.12 C 539.88 14.92 544.84 1.4 556.88 1.4 C 564.32 1.4 574.16 6.6 575 20.68 L 575.92 20.64 Z" id="15" vector-effect="non-scaling-stroke"/><path d="M 607.32 51.56 L 596.04 51.56 C 589.84 51.56 588.12 49.64 587.64 42.08 L 586.72 42.12 L 587.8 58 L 608.08 58 L 609.48 51.2 C 603.12 50.36 595.64 42.16 595.64 24.68 C 595.64 12.92 599.68 1.4 612.4 1.4 C 624.84 1.4 629.24 12.36 629.24 24.8 C 629.24 41.8 622.12 50.28 615.4 51.2 L 616.8 58 L 637.08 58 L 638.16 42.12 L 637.24 42.08 C 636.76 49.64 635.04 51.56 628.84 51.56 L 617.56 51.56 C 631.88 47.36 638.12 36.36 638.12 25.6 C 638.12 13.16 629 0.48 612.28 0.48 C 595.52 0.48 586.76 13.28 586.76 25.6 C 586.76 36.32 592.84 47.28 607.32 51.56 Z" id="16" vector-effect="non-scaling-stroke"/><path d="M 711.4 2 L 695.56 2 L 680 46 L 663.36 2 L 646.8 2 L 646.8 2.92 L 654.6 2.92 L 654.6 40.96 C 654.6 52.56 651.92 57.08 645.76 57.08 L 645.2 57.08 L 645.2 58 L 664.72 58 L 664.72 57.08 L 664.16 57.08 C 657.72 57.08 655.56 52.56 655.56 40.96 L 655.56 4.08 L 675.84 58 L 676.92 58 L 696.08 3.44 L 696.08 57.08 L 688.68 57.08 L 688.68 58 L 711.4 58 L 711.4 57.08 L 703.96 57.08 L 703.96 2.92 L 711.4 2.92 L 711.4 2 Z" id="17" vector-effect="non-scaling-stroke"/><path d="M 716.68 2 L 716.68 2.92 L 724.12 2.92 L 724.12 57.08 L 716.68 57.08 L 716.68 58 L 740.24 58 L 740.24 57.08 L 731.96 57.08 L 731.96 33.8 C 734.12 34.6 736.92 35 740.24 35 C 755 35 760.84 26.96 760.84 18.72 C 760.84 8.48 752.12 2 738.72 2 L 716.68 2 Z M 731.96 32.84 L 731.96 2.92 L 736.16 2.92 C 745.52 2.92 752.2 7.4 752.2 18.44 C 752.2 26.72 749.48 34.04 738.92 34.04 C 736.08 34.04 733.72 33.56 731.96 32.84 Z" id="18" vector-effect="non-scaling-stroke"/><path d="M 802.64 2 L 802.64 2.92 L 803.24 2.92 C 809.48 2.92 811.84 7.48 811.84 19 L 811.84 37.72 C 811.84 52.64 805.16 58.28 794.96 58.28 C 784.92 58.28 780.96 52.44 780.96 40 L 780.96 2.92 L 788.32 2.92 L 788.32 2 L 765.64 2 L 765.64 2.92 L 773.08 2.92 L 773.08 39.12 C 773.08 53.84 780.84 59.52 793.08 59.52 C 805.24 59.52 812.84 53.88 812.84 37.64 L 812.84 19 C 812.84 7.52 815.52 2.92 821.56 2.92 L 822.12 2.92 L 822.12 2 L 802.64 2 Z" id="19" vector-effect="non-scaling-stroke"/><path d="M 827.04 2 L 826.36 20.52 L 827.24 20.56 L 827.44 17.08 C 827.84 9.52 830.64 2.92 842.76 2.92 L 846.68 2.92 L 846.68 57.08 L 839.24 57.08 L 839.24 58 L 861.96 58 L 861.96 57.08 L 854.52 57.08 L 854.52 2.92 L 858.44 2.92 C 870.56 2.92 873.28 9.56 873.76 17.08 L 874 20.56 L 874.88 20.52 L 874.16 2 L 827.04 2 Z" id="20" vector-effect="non-scaling-stroke"/><path d="M 906 57.08 L 895.48 57.08 L 895.48 30.28 L 898.8 30.28 C 900.8 30.28 902.72 30.36 904.04 30.68 C 907.44 31.48 909.32 34.72 909.56 40.76 L 910.44 40.76 L 910.44 18.92 L 909.56 18.92 C 909.36 23.88 907.48 28.04 903.88 28.96 C 902.48 29.32 900.56 29.4 898.8 29.4 L 895.48 29.4 L 895.48 2.92 L 905.92 2.92 C 918.04 2.92 921.2 9.12 921.64 16.96 L 921.84 20.68 L 922.72 20.68 L 922.08 2 L 880.2 2 L 880.2 2.92 L 887.64 2.92 L 887.64 57.08 L 880.2 57.08 L 880.2 58 L 922.48 58 L 923.4 38.36 L 922.44 38.36 L 922.24 42.48 C 921.76 51.12 917.72 57.08 906 57.08 Z" id="21" vector-effect="non-scaling-stroke"/><path d="M 953.52 2 L 930.68 2 L 930.68 2.92 L 938.12 2.92 L 938.12 57.08 L 930.68 57.08 L 930.68 58 L 953.4 58 L 953.4 57.08 L 945.96 57.08 L 945.96 30.36 C 962 30.84 963.36 31.24 964.72 43.64 C 965.88 54.04 968 59.04 974.2 59.04 C 979.04 59.04 981.08 55.28 981.4 48.96 L 980.52 48.88 C 980.24 53.96 978.72 57.24 976.4 57.24 C 973.92 57.24 973.36 53.76 973.16 47.96 C 972.72 35.16 969.84 31 953.92 30.12 C 953.96 30.12 953.96 30.08 953.92 30.08 C 962.6 29.56 973.16 26.4 973.16 16.24 C 973.16 7.4 965.68 2 953.52 2 Z M 945.96 2.92 L 951.04 2.92 C 960.32 2.92 964.56 7.6 964.56 16.68 C 964.56 21.68 963.28 26.4 958.92 28.24 C 956.56 29.24 953.4 29.52 950.76 29.52 C 949.16 29.52 947.32 29.48 945.96 29.44 L 945.96 2.92 Z" id="22" vector-effect="non-scaling-stroke"/></g></svg>