<svg width="898.36" height="77.121" viewBox="0 0 898.36 77.121" xmlns="http://www.w3.org/2000/svg"><g id="svgGroup" stroke-linecap="round" fill-rule="evenodd" font-size="9pt" stroke="#000" stroke-width="0.25mm" fill="#000000" style="stroke:#000;stroke-width:0.25mm;fill:#000000"><path d="M 0.68 2 L 0 20.52 L 0.88 20.56 L 1.08 17.08 C 1.48 9.52 4.28 2.92 16.4 2.92 L 20.32 2.92 L 20.32 57.08 L 12.88 57.08 L 12.88 58 L 35.6 58 L 35.6 57.08 L 28.16 57.08 L 28.16 2.92 L 32.08 2.92 C 44.2 2.92 46.92 9.56 47.4 17.08 L 47.64 20.56 L 48.52 20.52 L 47.8 2 L 0.68 2 Z" id="0" vector-effect="non-scaling-stroke"/><path d="M 65.04 33.12 L 65.04 0.92 C 61.12 1.76 57.36 2 52.04 2 L 52.04 2.92 L 58.4 2.92 L 58.4 57.08 L 52.04 57.08 L 52.04 58 L 71.36 58 L 71.36 57.08 L 65.04 57.08 L 65.04 37.96 C 65.08 32.6 68.76 21.8 76.24 21.8 C 79.84 21.8 82.12 24.36 82.12 30 L 82.12 57.08 L 76 57.08 L 76 58 L 95.12 58 L 95.12 57.08 L 88.76 57.08 L 88.76 33.32 C 88.76 24.84 85.04 20.12 78.32 20.12 C 70.08 20.12 66.4 27.52 65.04 33.12 Z" id="1" vector-effect="non-scaling-stroke"/><path d="M 106.08 37.64 L 131.04 37.64 C 131.08 37.24 131.08 36.8 131.08 36.4 C 131.08 28.2 126.52 20.12 116.8 20.12 C 107.28 20.12 98.76 28.32 98.76 39.6 C 98.76 51.2 107.76 59.04 116.96 59.04 C 123 59.04 128.28 55.52 130.92 51.04 L 130.2 50.52 C 127.84 54.56 123.48 57.68 118.36 57.68 C 109.68 57.68 105.84 49.92 106.08 37.64 Z M 123.68 36.72 L 106.12 36.72 C 106.6 28.28 109.68 21 115.68 21 C 121.52 21 123.72 28.28 123.72 35.28 C 123.72 35.76 123.72 36.24 123.68 36.72 Z" id="2" vector-effect="non-scaling-stroke"/><path d="M 190.84 36.72 L 190.84 37.64 L 198.88 37.64 L 198.88 49.36 C 197.92 53.72 193.72 58.64 186.28 58.64 C 173.24 58.64 168.92 44 168.92 29.92 C 168.92 15.16 173.72 1.4 186.08 1.4 C 193.6 1.4 203.4 6.56 204.24 20.68 L 205.2 20.64 L 204.64 0.48 L 203.84 0.48 C 203.48 2.64 201.48 5 198.36 5.32 C 195.64 2.8 191.52 0.48 185.76 0.48 C 171.44 0.48 160.28 15.12 160.28 29.72 C 160.28 43.64 170.28 59.52 185.84 59.52 C 194.64 59.52 197.8 54.96 206.72 54.96 L 206.72 37.64 L 213.76 37.64 L 213.76 36.72 L 190.84 36.72 Z" id="4" vector-effect="non-scaling-stroke"/><path d="M 225.56 37.64 L 250.52 37.64 C 250.56 37.24 250.56 36.8 250.56 36.4 C 250.56 28.2 246 20.12 236.28 20.12 C 226.76 20.12 218.24 28.32 218.24 39.6 C 218.24 51.2 227.24 59.04 236.44 59.04 C 242.48 59.04 247.76 55.52 250.4 51.04 L 249.68 50.52 C 247.32 54.56 242.96 57.68 237.84 57.68 C 229.16 57.68 225.32 49.92 225.56 37.64 Z M 243.16 36.72 L 225.6 36.72 C 226.08 28.28 229.16 21 235.16 21 C 241 21 243.2 28.28 243.2 35.28 C 243.2 35.76 243.2 36.24 243.16 36.72 Z" id="5" vector-effect="non-scaling-stroke"/><path d="M 274.16 20.12 C 264.88 20.12 256.12 28.24 256.12 39.6 C 256.12 50.88 264.84 59.04 274.2 59.04 C 283.52 59.04 292.28 50.92 292.28 39.6 C 292.28 28.2 283.48 20.12 274.16 20.12 Z M 284.92 39.28 C 284.92 49.76 281.96 58.12 274.2 58.12 C 266.4 58.12 263.44 49.8 263.44 39.16 C 263.44 29.8 266.12 21 274.24 21 C 282.28 21 284.92 29.8 284.92 39.28 Z" id="6" vector-effect="non-scaling-stroke"/><path d="M 309.16 31.92 L 309.16 20.04 C 305.24 20.88 301.48 21.12 296.16 21.12 L 296.16 22.04 L 302.52 22.04 L 302.52 57.08 L 296.16 57.08 L 296.16 58 L 314.52 58 L 314.52 57.08 L 309.16 57.08 L 309.16 37 C 309.16 32.16 312.12 21.8 318.92 21.8 C 322 21.8 324.08 24 324.08 30.28 L 324.08 57.08 L 318.56 57.08 L 318.56 58 L 336.08 58 L 336.08 57.08 L 330.8 57.08 L 330.8 37 C 330.8 31.52 333.72 21.8 340.6 21.8 C 343.92 21.8 345.68 24.08 345.68 30.28 L 345.68 57.08 L 340.12 57.08 L 340.12 58 L 358.68 58 L 358.68 57.08 L 352.32 57.08 L 352.32 33.28 C 352.32 24.88 349 20.12 342.64 20.12 C 335.28 20.12 332 26.36 330.72 31.88 C 330.36 24.28 327 20.12 321.08 20.12 C 313.72 20.12 310.52 26.56 309.16 31.92 Z" id="7" vector-effect="non-scaling-stroke"/><path d="M 369.64 37.64 L 394.6 37.64 C 394.64 37.24 394.64 36.8 394.64 36.4 C 394.64 28.2 390.08 20.12 380.36 20.12 C 370.84 20.12 362.32 28.32 362.32 39.6 C 362.32 51.2 371.32 59.04 380.52 59.04 C 386.56 59.04 391.84 55.52 394.48 51.04 L 393.76 50.52 C 391.4 54.56 387.04 57.68 381.92 57.68 C 373.24 57.68 369.4 49.92 369.64 37.64 Z M 387.24 36.72 L 369.68 36.72 C 370.16 28.28 373.24 21 379.24 21 C 385.08 21 387.28 28.28 387.28 35.28 C 387.28 35.76 387.28 36.24 387.24 36.72 Z" id="8" vector-effect="non-scaling-stroke"/><path d="M 411.04 51.56 L 411.04 22.04 L 420.72 22.04 L 420.72 21.12 L 411.04 21.12 L 411.04 9.08 C 409.72 11.2 406.72 13.68 404.36 14.36 L 404.36 21.12 L 398.48 21.12 L 398.48 22.04 L 404.36 22.04 L 404.36 47.2 C 404.36 54.32 406.52 59.04 413 59.04 C 417.04 59.04 419.56 56.88 421.08 54.52 L 420.36 54.04 C 419.44 55.52 417.48 57.52 415.04 57.52 C 412.72 57.52 411.04 55.96 411.04 51.56 Z" id="9" vector-effect="non-scaling-stroke"/><path d="M 437 35.68 L 437 20.04 C 433.04 20.88 429.24 21.12 423.84 21.12 L 423.84 22.04 L 430.2 22.04 L 430.2 57.08 L 423.84 57.08 L 423.84 58 L 443.72 58 L 443.72 57.08 L 437 57.08 L 437 43.24 C 437 33.32 440.12 20.96 447.92 20.96 C 450.68 20.96 452.16 22.48 452.68 24.08 C 452 22.92 450.76 22.2 449.36 22.2 C 447.32 22.2 445.56 23.84 445.56 26.08 C 445.56 28.28 447.4 29.96 449.56 29.96 C 451.8 29.96 453.72 28.2 453.72 25.44 C 453.72 22.48 451.6 20.12 447.88 20.12 C 441.44 20.12 438.04 27.72 437 35.68 Z" id="10" vector-effect="non-scaling-stroke"/><path d="M 474.24 66.84 L 486.12 35.48 C 489.44 26.72 491.64 22.04 496.04 22.04 L 496.36 22.04 L 496.36 21.12 L 481.96 21.12 L 481.96 22.04 L 482.56 22.04 C 485.56 22.04 487 24.24 487 27.56 C 487 29.44 486.56 31.68 485.64 34.12 L 478.52 52.96 L 467.72 22.04 L 473.68 22.04 L 473.68 21.12 L 455.92 21.12 L 455.92 22.04 L 460.72 22.04 L 473.36 58 L 474.04 58 C 475.48 58 475.88 58.52 475.88 59.24 C 475.88 59.72 475.72 60.24 475.52 60.8 L 473.28 66.8 C 471.04 72.72 468.52 76.24 464.12 76.24 C 460.8 76.24 458.52 74 458.52 70.8 C 458.8 72.32 460.08 73.92 462.36 73.92 C 464.44 73.92 466.04 72.36 466.04 70.12 C 466.04 67.84 464.28 66.2 461.96 66.2 C 459.32 66.2 457.68 68.32 457.68 71.08 C 457.68 74.44 460.24 77.12 464.12 77.12 C 469.2 77.12 471.92 72.96 474.24 66.84 Z" id="11" vector-effect="non-scaling-stroke"/><path d="M 540.32 20.12 C 531.04 20.12 522.28 28.24 522.28 39.6 C 522.28 50.88 531 59.04 540.36 59.04 C 549.68 59.04 558.44 50.92 558.44 39.6 C 558.44 28.2 549.64 20.12 540.32 20.12 Z M 551.08 39.28 C 551.08 49.76 548.12 58.12 540.36 58.12 C 532.56 58.12 529.6 49.8 529.6 39.16 C 529.6 29.8 532.28 21 540.4 21 C 548.44 21 551.08 29.8 551.08 39.28 Z" id="13" vector-effect="non-scaling-stroke"/><path d="M 568.56 21.12 L 562.12 21.12 L 562.12 22.04 L 568.52 22.04 C 568.48 22.68 568.48 23.36 568.48 24.04 L 568.48 57.08 L 562.12 57.08 L 562.12 58 L 582.28 58 L 582.28 57.08 L 575.12 57.08 L 575.12 22.04 L 583.72 22.04 L 583.72 21.12 L 575.08 21.12 C 574.16 18.04 573.64 14.68 573.64 11.68 C 573.64 4.76 576.72 0.84 581.4 0.84 C 583.72 0.84 585.64 1.96 586.24 4 C 585.72 3 584.72 1.88 582.84 1.88 C 580.6 1.88 579.04 3.64 579.04 5.68 C 579.04 7.88 580.76 9.56 583.04 9.56 C 585.48 9.56 587.2 7.64 587.2 5.12 C 587.2 2.08 584.8 0 581.4 0 C 574.76 0 569.24 7.68 568.56 21.12 Z" id="14" vector-effect="non-scaling-stroke"/><path d="M 611.2 2 L 610.52 20.52 L 611.4 20.56 L 611.6 17.08 C 612 9.52 614.8 2.92 626.92 2.92 L 630.84 2.92 L 630.84 57.08 L 623.4 57.08 L 623.4 58 L 646.12 58 L 646.12 57.08 L 638.68 57.08 L 638.68 2.92 L 642.6 2.92 C 654.72 2.92 657.44 9.56 657.92 17.08 L 658.16 20.56 L 659.04 20.52 L 658.32 2 L 611.2 2 Z" id="16" vector-effect="non-scaling-stroke"/><path d="M 675.56 33.12 L 675.56 0.92 C 671.64 1.76 667.88 2 662.56 2 L 662.56 2.92 L 668.92 2.92 L 668.92 57.08 L 662.56 57.08 L 662.56 58 L 681.88 58 L 681.88 57.08 L 675.56 57.08 L 675.56 37.96 C 675.6 32.6 679.28 21.8 686.76 21.8 C 690.36 21.8 692.64 24.36 692.64 30 L 692.64 57.08 L 686.52 57.08 L 686.52 58 L 705.64 58 L 705.64 57.08 L 699.28 57.08 L 699.28 33.32 C 699.28 24.84 695.56 20.12 688.84 20.12 C 680.6 20.12 676.92 27.52 675.56 33.12 Z" id="17" vector-effect="non-scaling-stroke"/><path d="M 727.32 20.12 C 718.04 20.12 709.28 28.24 709.28 39.6 C 709.28 50.88 718 59.04 727.36 59.04 C 736.68 59.04 745.44 50.92 745.44 39.6 C 745.44 28.2 736.64 20.12 727.32 20.12 Z M 738.08 39.28 C 738.08 49.76 735.12 58.12 727.36 58.12 C 719.56 58.12 716.6 49.8 716.6 39.16 C 716.6 29.8 719.28 21 727.4 21 C 735.44 21 738.08 29.8 738.08 39.28 Z" id="18" vector-effect="non-scaling-stroke"/><path d="M 772.16 21.12 L 772.16 22.04 L 778.52 22.04 L 778.52 45.68 C 778 49.8 774.36 57.32 768.56 57.32 C 764.48 57.32 762.04 54.56 762.04 48.72 L 762.04 20.04 C 758.16 20.88 754.4 21.12 749.04 21.12 L 749.04 22.04 L 755.4 22.04 L 755.4 44.96 C 755.4 52.88 758.84 59.04 766.44 59.04 C 773.96 59.04 777.44 52.44 778.52 48.6 L 778.52 58.68 C 782.44 58.24 786.2 58 791.52 58 L 791.52 57.08 L 785.2 57.08 L 785.2 20.04 C 781.28 20.88 777.52 21.12 772.16 21.12 Z" id="19" vector-effect="non-scaling-stroke"/><path d="M 815.88 52.92 C 813.76 52.92 803.6 53.2 801.88 53.2 C 799.12 53.2 797.36 52.52 797.36 50.64 C 797.36 48.32 800.04 46.48 804.16 45.56 C 806.24 46.52 808.64 47.04 811.28 47.04 C 820.84 47.04 826.08 40.12 826.08 33.48 C 826.08 28.56 823.28 24.36 818.96 22.04 C 823.12 21.76 825.68 18.72 825.68 15.48 C 825.68 12.52 823.8 10.64 821.4 10.64 C 819.2 10.64 817.52 12.2 817.52 14.48 C 817.52 16.72 819.28 18.12 821.2 18.12 C 823.16 18.12 824.56 16.8 824.76 15.16 C 824.96 18.2 822.4 21.32 818.04 21.32 C 817.76 21.32 817.52 21.32 817.24 21.28 C 815.32 20.52 813.2 20.12 810.96 20.12 C 801.48 20.12 796.44 27.16 796.44 33.8 C 796.44 38.52 798.92 42.64 803.04 44.96 C 798.44 46.2 795.4 49.04 795.4 52.76 C 795.4 55.84 797.36 58.56 801.72 59.48 C 797.92 60.4 793.88 62.96 793.88 67.32 C 793.88 72.8 800.12 77.12 809.4 77.12 C 819.64 77.12 828.68 71.52 828.68 62.92 C 828.68 56.52 823.48 52.92 815.88 52.92 Z M 809.64 76.24 C 801.8 76.24 798.4 72.72 798.4 67.12 C 798.4 62.6 800.52 60.16 805.08 59.8 C 806.96 59.8 814.36 59.56 816.52 59.56 C 822 59.56 825.28 61.24 825.28 65.64 C 825.28 71.76 818.48 76.24 809.64 76.24 Z M 811.2 21 C 817.28 21 819.04 27 819.04 33.6 C 819.04 40.16 817.28 46.12 811.2 46.12 C 805.08 46.12 803.48 40 803.48 33.6 C 803.48 27.16 805.12 21 811.2 21 Z" id="20" vector-effect="non-scaling-stroke"/><path d="M 843.76 33.12 L 843.76 0.92 C 839.84 1.76 836.08 2 830.76 2 L 830.76 2.92 L 837.12 2.92 L 837.12 57.08 L 830.76 57.08 L 830.76 58 L 850.08 58 L 850.08 57.08 L 843.76 57.08 L 843.76 37.96 C 843.8 32.6 847.48 21.8 854.96 21.8 C 858.56 21.8 860.84 24.36 860.84 30 L 860.84 57.08 L 854.72 57.08 L 854.72 58 L 873.84 58 L 873.84 57.08 L 867.48 57.08 L 867.48 33.32 C 867.48 24.84 863.76 20.12 857.04 20.12 C 848.8 20.12 845.12 27.52 843.76 33.12 Z" id="21" vector-effect="non-scaling-stroke"/><path d="M 888.32 51.56 L 888.32 22.04 L 898 22.04 L 898 21.12 L 888.32 21.12 L 888.32 9.08 C 887 11.2 884 13.68 881.64 14.36 L 881.64 21.12 L 875.76 21.12 L 875.76 22.04 L 881.64 22.04 L 881.64 47.2 C 881.64 54.32 883.8 59.04 890.28 59.04 C 894.32 59.04 896.84 56.88 898.36 54.52 L 897.64 54.04 C 896.72 55.52 894.76 57.52 892.32 57.52 C 890 57.52 888.32 55.96 888.32 51.56 Z" id="22" vector-effect="non-scaling-stroke"/></g></svg>