<svg width="1151.16" height="59.526" viewBox="0 0 1151.16 59.526" xmlns="http://www.w3.org/2000/svg"><g id="svgGroup" stroke-linecap="round" fill-rule="evenodd" font-size="9pt" stroke="#000" stroke-width="0.25mm" fill="#000000" style="stroke:#000;stroke-width:0.25mm;fill:#000000"><path d="M 0.68 2 L 0 20.52 L 0.88 20.56 L 1.08 17.08 C 1.48 9.52 4.28 2.92 16.4 2.92 L 20.32 2.92 L 20.32 57.08 L 12.88 57.08 L 12.88 58 L 35.6 58 L 35.6 57.08 L 28.16 57.08 L 28.16 2.92 L 32.08 2.92 C 44.2 2.92 46.92 9.56 47.4 17.08 L 47.64 20.56 L 48.52 20.52 L 47.8 2 L 0.68 2 Z" id="0" vector-effect="non-scaling-stroke"/><path d="M 65.04 33.12 L 65.04 0.92 C 61.12 1.76 57.36 2 52.04 2 L 52.04 2.92 L 58.4 2.92 L 58.4 57.08 L 52.04 57.08 L 52.04 58 L 71.36 58 L 71.36 57.08 L 65.04 57.08 L 65.04 37.96 C 65.08 32.6 68.76 21.8 76.24 21.8 C 79.84 21.8 82.12 24.36 82.12 30 L 82.12 57.08 L 76 57.08 L 76 58 L 95.12 58 L 95.12 57.08 L 88.76 57.08 L 88.76 33.32 C 88.76 24.84 85.04 20.12 78.32 20.12 C 70.08 20.12 66.4 27.52 65.04 33.12 Z" id="1" vector-effect="non-scaling-stroke"/><path d="M 106.08 37.64 L 131.04 37.64 C 131.08 37.24 131.08 36.8 131.08 36.4 C 131.08 28.2 126.52 20.12 116.8 20.12 C 107.28 20.12 98.76 28.32 98.76 39.6 C 98.76 51.2 107.76 59.04 116.96 59.04 C 123 59.04 128.28 55.52 130.92 51.04 L 130.2 50.52 C 127.84 54.56 123.48 57.68 118.36 57.68 C 109.68 57.68 105.84 49.92 106.08 37.64 Z M 123.68 36.72 L 106.12 36.72 C 106.6 28.28 109.68 21 115.68 21 C 121.52 21 123.72 28.28 123.72 35.28 C 123.72 35.76 123.72 36.24 123.68 36.72 Z" id="2" vector-effect="non-scaling-stroke"/><path d="M 184.32 0.96 L 183.44 0.96 L 168.88 42.56 C 164.68 54.6 162.36 57.08 157.12 57.08 L 157.04 57.08 L 157.04 58 L 175.92 58 L 175.92 57.08 L 175.4 57.08 C 171.68 57.08 168.64 56.24 168.64 50.8 C 168.64 47.92 169.48 43.72 171.56 37.64 L 189.4 37.64 L 196.48 57.08 L 190.04 57.08 L 190.04 58 L 210.76 58 L 210.76 57.08 L 205.04 57.08 L 184.32 0.96 Z M 180.32 12.68 L 189.08 36.72 L 171.88 36.72 L 180.32 12.68 Z" id="4" vector-effect="non-scaling-stroke"/><path d="M 225.8 35.68 L 225.8 20.04 C 221.84 20.88 218.04 21.12 212.64 21.12 L 212.64 22.04 L 219 22.04 L 219 57.08 L 212.64 57.08 L 212.64 58 L 232.52 58 L 232.52 57.08 L 225.8 57.08 L 225.8 43.24 C 225.8 33.32 228.92 20.96 236.72 20.96 C 239.48 20.96 240.96 22.48 241.48 24.08 C 240.8 22.92 239.56 22.2 238.16 22.2 C 236.12 22.2 234.36 23.84 234.36 26.08 C 234.36 28.28 236.2 29.96 238.36 29.96 C 240.6 29.96 242.52 28.2 242.52 25.44 C 242.52 22.48 240.4 20.12 236.68 20.12 C 230.24 20.12 226.84 27.72 225.8 35.68 Z" id="5" vector-effect="non-scaling-stroke"/><path d="M 278.64 51.24 L 277.96 50.72 C 275.64 54.64 271.28 57.68 266.2 57.68 C 257.4 57.68 253.88 49.04 253.88 39.56 C 253.88 29.96 257.36 21.2 266.08 21.2 C 272.28 21.2 276.72 25.32 276.8 28.96 C 276.32 27.24 274.72 26.08 273 26.08 C 270.88 26.08 269.2 27.84 269.2 30 C 269.2 32.2 270.92 34 273.28 34 C 275.72 34 277.64 32.16 277.64 29.2 C 277.64 24.08 271.88 20.12 265.04 20.12 C 256.12 20.12 246.56 27.32 246.56 39.52 C 246.56 51.88 256.32 59.04 264.96 59.04 C 270.76 59.04 276.12 55.6 278.64 51.24 Z" id="6" vector-effect="non-scaling-stroke"/><path d="M 294.52 33.12 L 294.52 0.92 C 290.6 1.76 286.84 2 281.52 2 L 281.52 2.92 L 287.88 2.92 L 287.88 57.08 L 281.52 57.08 L 281.52 58 L 300.84 58 L 300.84 57.08 L 294.52 57.08 L 294.52 37.96 C 294.56 32.6 298.24 21.8 305.72 21.8 C 309.32 21.8 311.6 24.36 311.6 30 L 311.6 57.08 L 305.48 57.08 L 305.48 58 L 324.6 58 L 324.6 57.08 L 318.24 57.08 L 318.24 33.32 C 318.24 24.84 314.52 20.12 307.8 20.12 C 299.56 20.12 295.88 27.52 294.52 33.12 Z" id="7" vector-effect="non-scaling-stroke"/><path d="M 326.76 21.12 L 326.76 22.04 L 333.12 22.04 L 333.12 57.08 L 326.76 57.08 L 326.76 58 L 346.12 58 L 346.12 57.08 L 339.76 57.08 L 339.76 20.04 C 335.84 20.88 332.08 21.12 326.76 21.12 Z M 340.28 8.48 C 340.28 6.24 338.52 4.6 336.4 4.6 C 334.24 4.6 332.52 6.24 332.52 8.48 C 332.52 10.72 334.24 12.36 336.4 12.36 C 338.52 12.36 340.28 10.72 340.28 8.48 Z" id="8" vector-effect="non-scaling-stroke"/><path d="M 360.48 51.56 L 360.48 22.04 L 370.16 22.04 L 370.16 21.12 L 360.48 21.12 L 360.48 9.08 C 359.16 11.2 356.16 13.68 353.8 14.36 L 353.8 21.12 L 347.92 21.12 L 347.92 22.04 L 353.8 22.04 L 353.8 47.2 C 353.8 54.32 355.96 59.04 362.44 59.04 C 366.48 59.04 369 56.88 370.52 54.52 L 369.8 54.04 C 368.88 55.52 366.92 57.52 364.48 57.52 C 362.16 57.52 360.48 55.96 360.48 51.56 Z" id="9" vector-effect="non-scaling-stroke"/><path d="M 382.08 37.64 L 407.04 37.64 C 407.08 37.24 407.08 36.8 407.08 36.4 C 407.08 28.2 402.52 20.12 392.8 20.12 C 383.28 20.12 374.76 28.32 374.76 39.6 C 374.76 51.2 383.76 59.04 392.96 59.04 C 399 59.04 404.28 55.52 406.92 51.04 L 406.2 50.52 C 403.84 54.56 399.48 57.68 394.36 57.68 C 385.68 57.68 381.84 49.92 382.08 37.64 Z M 399.68 36.72 L 382.12 36.72 C 382.6 28.28 385.68 21 391.68 21 C 397.52 21 399.72 28.28 399.72 35.28 C 399.72 35.76 399.72 36.24 399.68 36.72 Z" id="10" vector-effect="non-scaling-stroke"/><path d="M 444.72 51.24 L 444.04 50.72 C 441.72 54.64 437.36 57.68 432.28 57.68 C 423.48 57.68 419.96 49.04 419.96 39.56 C 419.96 29.96 423.44 21.2 432.16 21.2 C 438.36 21.2 442.8 25.32 442.88 28.96 C 442.4 27.24 440.8 26.08 439.08 26.08 C 436.96 26.08 435.28 27.84 435.28 30 C 435.28 32.2 437 34 439.36 34 C 441.8 34 443.72 32.16 443.72 29.2 C 443.72 24.08 437.96 20.12 431.12 20.12 C 422.2 20.12 412.64 27.32 412.64 39.52 C 412.64 51.88 422.4 59.04 431.04 59.04 C 436.84 59.04 442.2 55.6 444.72 51.24 Z" id="11" vector-effect="non-scaling-stroke"/><path d="M 460.28 51.56 L 460.28 22.04 L 469.96 22.04 L 469.96 21.12 L 460.28 21.12 L 460.28 9.08 C 458.96 11.2 455.96 13.68 453.6 14.36 L 453.6 21.12 L 447.72 21.12 L 447.72 22.04 L 453.6 22.04 L 453.6 47.2 C 453.6 54.32 455.76 59.04 462.24 59.04 C 466.28 59.04 468.8 56.88 470.32 54.52 L 469.6 54.04 C 468.68 55.52 466.72 57.52 464.28 57.52 C 461.96 57.52 460.28 55.96 460.28 51.56 Z" id="12" vector-effect="non-scaling-stroke"/><path d="M 495.92 21.12 L 495.92 22.04 L 502.28 22.04 L 502.28 45.68 C 501.76 49.8 498.12 57.32 492.32 57.32 C 488.24 57.32 485.8 54.56 485.8 48.72 L 485.8 20.04 C 481.92 20.88 478.16 21.12 472.8 21.12 L 472.8 22.04 L 479.16 22.04 L 479.16 44.96 C 479.16 52.88 482.6 59.04 490.2 59.04 C 497.72 59.04 501.2 52.44 502.28 48.6 L 502.28 58.68 C 506.2 58.24 509.96 58 515.28 58 L 515.28 57.08 L 508.96 57.08 L 508.96 20.04 C 505.04 20.88 501.28 21.12 495.92 21.12 Z" id="13" vector-effect="non-scaling-stroke"/><path d="M 530.48 35.68 L 530.48 20.04 C 526.52 20.88 522.72 21.12 517.32 21.12 L 517.32 22.04 L 523.68 22.04 L 523.68 57.08 L 517.32 57.08 L 517.32 58 L 537.2 58 L 537.2 57.08 L 530.48 57.08 L 530.48 43.24 C 530.48 33.32 533.6 20.96 541.4 20.96 C 544.16 20.96 545.64 22.48 546.16 24.08 C 545.48 22.92 544.24 22.2 542.84 22.2 C 540.8 22.2 539.04 23.84 539.04 26.08 C 539.04 28.28 540.88 29.96 543.04 29.96 C 545.28 29.96 547.2 28.2 547.2 25.44 C 547.2 22.48 545.08 20.12 541.36 20.12 C 534.92 20.12 531.52 27.72 530.48 35.68 Z" id="14" vector-effect="non-scaling-stroke"/><path d="M 558.56 37.64 L 583.52 37.64 C 583.56 37.24 583.56 36.8 583.56 36.4 C 583.56 28.2 579 20.12 569.28 20.12 C 559.76 20.12 551.24 28.32 551.24 39.6 C 551.24 51.2 560.24 59.04 569.44 59.04 C 575.48 59.04 580.76 55.52 583.4 51.04 L 582.68 50.52 C 580.32 54.56 575.96 57.68 570.84 57.68 C 562.16 57.68 558.32 49.92 558.56 37.64 Z M 576.16 36.72 L 558.6 36.72 C 559.08 28.28 562.16 21 568.16 21 C 574 21 576.2 28.28 576.2 35.28 C 576.2 35.76 576.2 36.24 576.16 36.72 Z" id="15" vector-effect="non-scaling-stroke"/><path d="M 629.56 20.12 C 620.28 20.12 611.52 28.24 611.52 39.6 C 611.52 50.88 620.24 59.04 629.6 59.04 C 638.92 59.04 647.68 50.92 647.68 39.6 C 647.68 28.2 638.88 20.12 629.56 20.12 Z M 640.32 39.28 C 640.32 49.76 637.36 58.12 629.6 58.12 C 621.8 58.12 618.84 49.8 618.84 39.16 C 618.84 29.8 621.52 21 629.64 21 C 637.68 21 640.32 29.8 640.32 39.28 Z" id="17" vector-effect="non-scaling-stroke"/><path d="M 657.8 21.12 L 651.36 21.12 L 651.36 22.04 L 657.76 22.04 C 657.72 22.68 657.72 23.36 657.72 24.04 L 657.72 57.08 L 651.36 57.08 L 651.36 58 L 671.52 58 L 671.52 57.08 L 664.36 57.08 L 664.36 22.04 L 672.96 22.04 L 672.96 21.12 L 664.32 21.12 C 663.4 18.04 662.88 14.68 662.88 11.68 C 662.88 4.76 665.96 0.84 670.64 0.84 C 672.96 0.84 674.88 1.96 675.48 4 C 674.96 3 673.96 1.88 672.08 1.88 C 669.84 1.88 668.28 3.64 668.28 5.68 C 668.28 7.88 670 9.56 672.28 9.56 C 674.72 9.56 676.44 7.64 676.44 5.12 C 676.44 2.08 674.04 0 670.64 0 C 664 0 658.48 7.68 657.8 21.12 Z" id="18" vector-effect="non-scaling-stroke"/><path d="M 745.68 20.64 L 745.12 0.48 L 744.32 0.48 C 743.96 2.64 741.84 5.04 738.84 5.32 C 736.16 2.8 731.96 0.48 726.28 0.48 C 712.08 0.48 701 15.28 701 29.76 C 701 43.88 711.44 59.52 726.36 59.52 C 731.24 59.52 735.52 57.72 739.28 53.56 C 741.48 54.04 743.72 56.4 744.28 59.52 L 745.08 59.52 L 745.88 38.68 L 744.96 38.68 C 743.72 48.56 737.12 58.56 726.8 58.56 C 713.84 58.56 709.64 43.92 709.64 30.12 C 709.64 14.92 714.6 1.4 726.64 1.4 C 734.08 1.4 743.92 6.6 744.76 20.68 L 745.68 20.64 Z" id="20" vector-effect="non-scaling-stroke"/><path d="M 777.08 51.56 L 765.8 51.56 C 759.6 51.56 757.88 49.64 757.4 42.08 L 756.48 42.12 L 757.56 58 L 777.84 58 L 779.24 51.2 C 772.88 50.36 765.4 42.16 765.4 24.68 C 765.4 12.92 769.44 1.4 782.16 1.4 C 794.6 1.4 799 12.36 799 24.8 C 799 41.8 791.88 50.28 785.16 51.2 L 786.56 58 L 806.84 58 L 807.92 42.12 L 807 42.08 C 806.52 49.64 804.8 51.56 798.6 51.56 L 787.32 51.56 C 801.64 47.36 807.88 36.36 807.88 25.6 C 807.88 13.16 798.76 0.48 782.04 0.48 C 765.28 0.48 756.52 13.28 756.52 25.6 C 756.52 36.32 762.6 47.28 777.08 51.56 Z" id="21" vector-effect="non-scaling-stroke"/><path d="M 881.16 2 L 865.32 2 L 849.76 46 L 833.12 2 L 816.56 2 L 816.56 2.92 L 824.36 2.92 L 824.36 40.96 C 824.36 52.56 821.68 57.08 815.52 57.08 L 814.96 57.08 L 814.96 58 L 834.48 58 L 834.48 57.08 L 833.92 57.08 C 827.48 57.08 825.32 52.56 825.32 40.96 L 825.32 4.08 L 845.6 58 L 846.68 58 L 865.84 3.44 L 865.84 57.08 L 858.44 57.08 L 858.44 58 L 881.16 58 L 881.16 57.08 L 873.72 57.08 L 873.72 2.92 L 881.16 2.92 L 881.16 2 Z" id="22" vector-effect="non-scaling-stroke"/><path d="M 886.44 2 L 886.44 2.92 L 893.88 2.92 L 893.88 57.08 L 886.44 57.08 L 886.44 58 L 910 58 L 910 57.08 L 901.72 57.08 L 901.72 33.8 C 903.88 34.6 906.68 35 910 35 C 924.76 35 930.6 26.96 930.6 18.72 C 930.6 8.48 921.88 2 908.48 2 L 886.44 2 Z M 901.72 32.84 L 901.72 2.92 L 905.92 2.92 C 915.28 2.92 921.96 7.4 921.96 18.44 C 921.96 26.72 919.24 34.04 908.68 34.04 C 905.84 34.04 903.48 33.56 901.72 32.84 Z" id="23" vector-effect="non-scaling-stroke"/><path d="M 972.4 2 L 972.4 2.92 L 973 2.92 C 979.24 2.92 981.6 7.48 981.6 19 L 981.6 37.72 C 981.6 52.64 974.92 58.28 964.72 58.28 C 954.68 58.28 950.72 52.44 950.72 40 L 950.72 2.92 L 958.08 2.92 L 958.08 2 L 935.4 2 L 935.4 2.92 L 942.84 2.92 L 942.84 39.12 C 942.84 53.84 950.6 59.52 962.84 59.52 C 975 59.52 982.6 53.88 982.6 37.64 L 982.6 19 C 982.6 7.52 985.28 2.92 991.32 2.92 L 991.88 2.92 L 991.88 2 L 972.4 2 Z" id="24" vector-effect="non-scaling-stroke"/><path d="M 996.8 2 L 996.12 20.52 L 997 20.56 L 997.2 17.08 C 997.6 9.52 1000.4 2.92 1012.52 2.92 L 1016.44 2.92 L 1016.44 57.08 L 1009 57.08 L 1009 58 L 1031.72 58 L 1031.72 57.08 L 1024.28 57.08 L 1024.28 2.92 L 1028.2 2.92 C 1040.32 2.92 1043.04 9.56 1043.52 17.08 L 1043.76 20.56 L 1044.64 20.52 L 1043.92 2 L 996.8 2 Z" id="25" vector-effect="non-scaling-stroke"/><path d="M 1075.76 57.08 L 1065.24 57.08 L 1065.24 30.28 L 1068.56 30.28 C 1070.56 30.28 1072.48 30.36 1073.8 30.68 C 1077.2 31.48 1079.08 34.72 1079.32 40.76 L 1080.2 40.76 L 1080.2 18.92 L 1079.32 18.92 C 1079.12 23.88 1077.24 28.04 1073.64 28.96 C 1072.24 29.32 1070.32 29.4 1068.56 29.4 L 1065.24 29.4 L 1065.24 2.92 L 1075.68 2.92 C 1087.8 2.92 1090.96 9.12 1091.4 16.96 L 1091.6 20.68 L 1092.48 20.68 L 1091.84 2 L 1049.96 2 L 1049.96 2.92 L 1057.4 2.92 L 1057.4 57.08 L 1049.96 57.08 L 1049.96 58 L 1092.24 58 L 1093.16 38.36 L 1092.2 38.36 L 1092 42.48 C 1091.52 51.12 1087.48 57.08 1075.76 57.08 Z" id="26" vector-effect="non-scaling-stroke"/><path d="M 1123.28 2 L 1100.44 2 L 1100.44 2.92 L 1107.88 2.92 L 1107.88 57.08 L 1100.44 57.08 L 1100.44 58 L 1123.16 58 L 1123.16 57.08 L 1115.72 57.08 L 1115.72 30.36 C 1131.76 30.84 1133.12 31.24 1134.48 43.64 C 1135.64 54.04 1137.76 59.04 1143.96 59.04 C 1148.8 59.04 1150.84 55.28 1151.16 48.96 L 1150.28 48.88 C 1150 53.96 1148.48 57.24 1146.16 57.24 C 1143.68 57.24 1143.12 53.76 1142.92 47.96 C 1142.48 35.16 1139.6 31 1123.68 30.12 C 1123.72 30.12 1123.72 30.08 1123.68 30.08 C 1132.36 29.56 1142.92 26.4 1142.92 16.24 C 1142.92 7.4 1135.44 2 1123.28 2 Z M 1115.72 2.92 L 1120.8 2.92 C 1130.08 2.92 1134.32 7.6 1134.32 16.68 C 1134.32 21.68 1133.04 26.4 1128.68 28.24 C 1126.32 29.24 1123.16 29.52 1120.52 29.52 C 1118.92 29.52 1117.08 29.48 1115.72 29.44 L 1115.72 2.92 Z" id="27" vector-effect="non-scaling-stroke"/></g></svg>